<svg xmlns="http://www.w3.org/2000/svg" viewBox="0 0 250 250"><defs><style>.a,.d{fill:#c7e2eb;}.b{fill:none;stroke:#fff;stroke-miterlimit:10;stroke-width:2px;}.c{fill:#222e50;}.d{font-size:23.8px;font-family:Roboto-Light, Roboto;font-weight:300;}.e{letter-spacing:-0.01em;}.f{fill:#fdfe00;}</style></defs><title>collage</title><rect class="a" width="250" height="250"/><path class="b" d="M125,121c-48-9-140-8-105,103"/><path class="b" d="M49,200c-30-78,41.45-91.65,72.29-79.08C146,131,216,163,230,135"/><path class="b" d="M48.52,139.86C26.75,60.4,95.08,90.61,116,128"/><path class="b" d="M125,140c-13-2-67-15-54,33"/><path class="b" d="M125,128c-17.06-3.88-121-75-96,48"/><path class="b" d="M125,125c-31,9-76,1-28,41"/><path class="b" d="M121,129c-12-11-8-84-75-51"/><path class="b" d="M121,124s-94-60-97-7"/><path class="b" d="M124.48,121.5c48,9,140,8,105-103"/><path class="b" d="M188,28c43,83-26.52,94.5-59.8,93.58"/><path class="b" d="M201,102.64c21.77,79.46-46.55,49.25-67.48,11.86"/><path class="b" d="M124.48,102.5c13,2,67,15,54-33"/><path class="b" d="M124.48,114.5c17.06,3.88,121,75,96-48"/><path class="b" d="M128.48,113.5c12,11,8,84,75,51"/><path class="b" d="M131,118c11,12.42-20.25,66.48,41,35"/><path class="b" d="M153.55,82.7c.15,6.32-15.87,24.42-36.09,25.53"/><path class="c" d="M50.72,216.56a12.36,12.36,0,1,1,12.36-12.35A12.37,12.37,0,0,1,50.72,216.56Zm0-20.15A7.79,7.79,0,0,0,45.51,210a5.3,5.3,0,0,1-.19-1.39,5.41,5.41,0,0,1,5.4-5.39,3.4,3.4,0,0,0,0-6.8Zm0,11.73a.47.47,0,0,0,0,.93.47.47,0,1,0,0-.93Zm0-5.87a2.47,2.47,0,1,1,2.47-2.46A2.46,2.46,0,0,1,50.72,202.27Z"/><path class="a" d="M50.72,192.85a11.36,11.36,0,1,1-11.36,11.36,11.35,11.35,0,0,1,11.36-11.36m0,20.15a4.4,4.4,0,1,1,0-8.79,4.4,4.4,0,0,0,0-8.8,8.8,8.8,0,0,0,0,17.59m0-2.93a1.47,1.47,0,1,0,0-2.93,1.47,1.47,0,0,0,0,2.93m0-11.73a1.47,1.47,0,1,1,0,2.93,1.47,1.47,0,0,1,0-2.93m0-7.49a13.36,13.36,0,1,0,13.36,13.36,13.38,13.38,0,0,0-13.36-13.36ZM44.53,207a6.69,6.69,0,0,1-.6-2.79,6.82,6.82,0,0,1,3.76-6.09,3.49,3.49,0,0,0,.93,4.44A6.44,6.44,0,0,0,44.53,207Z"/><path class="c" d="M155.35,91.16a2.1,2.1,0,0,1-2.1-2.1v-6h-3.4a2.1,2.1,0,0,1-2.1-2.1V79.53a2.1,2.1,0,0,1,2.1-2.1h.37a10.1,10.1,0,0,1-1-4.13c0-4.4,2.88-7.59,6.86-7.59s6.86,3.19,6.86,7.59a10.1,10.1,0,0,1-1,4.13h.37a2.1,2.1,0,0,1,2.1,2.1V81a2.1,2.1,0,0,1-2.1,2.1h-3.4v6a2.1,2.1,0,0,1-2.1,2.1Zm.73-19.79c-1.08,0-1.2,1.35-1.2,1.93a6.08,6.08,0,0,0,1.2,3,6.08,6.08,0,0,0,1.2-3C157.28,72.72,157.16,71.37,156.08,71.37Z"/><path class="a" d="M156.08,66.71c3.24,0,5.86,2.55,5.86,6.59a10.2,10.2,0,0,1-1.67,5.13h2a1.1,1.1,0,0,1,1.1,1.1V81a1.1,1.1,0,0,1-1.1,1.1h-4.4v7a1.1,1.1,0,0,1-1.1,1.1h-1.46a1.1,1.1,0,0,1-1.1-1.1v-7h-4.4a1.11,1.11,0,0,1-1.1-1.1V79.53a1.1,1.1,0,0,1,1.1-1.1h2.05a10.11,10.11,0,0,1-1.68-5.13c0-4,2.62-6.59,5.86-6.59m0,11.21a8.12,8.12,0,0,0,2.2-4.62c0-1.81-.84-2.93-2.2-2.93s-2.2,1.12-2.2,2.93a8.18,8.18,0,0,0,2.2,4.62m0-13.21c-4.55,0-7.86,3.61-7.86,8.59a10,10,0,0,0,.6,3.31,3.12,3.12,0,0,0-2.07,2.92V81a3.1,3.1,0,0,0,3.1,3.1h2.4v5a3.1,3.1,0,0,0,3.1,3.1h1.46a3.1,3.1,0,0,0,3.1-3.1v-5h2.4a3.1,3.1,0,0,0,3.1-3.1V79.53a3.11,3.11,0,0,0-2.06-2.92,10.29,10.29,0,0,0,.59-3.31c0-5-3.3-8.59-7.86-8.59Zm0,7.66h0a1.9,1.9,0,0,1,.18.93,2.59,2.59,0,0,1-.2.9,2.84,2.84,0,0,1-.2-.9,1.9,1.9,0,0,1,.18-.93Z"/><path class="c" d="M45.85,87.67c-2.07,0-3.86-1.38-5.1-3.89h-.53c-2.39,0-4.14-.86-5-2.5-.59-1.05-1.21-3.23.81-6.35-2-3.12-1.4-5.3-.81-6.35s1.87-2.5,5-2.5h.53c1.24-2.51,3-3.89,5.1-3.89s3.87,1.38,5.1,3.89h.54c3.17,0,4.52,1.56,5,2.5s1.21,3.23-.81,6.35c2,3.12,1.39,5.3.81,6.35-.92,1.64-2.66,2.5-5,2.5H51C49.72,86.29,47.93,87.67,45.85,87.67Zm0-5.06.06-.07-.06,0-.06,0Zm0-15.25.06,0-.06-.07-.06.07Z"/><path class="a" d="M45.85,63.21c2,0,3.5,1.6,4.48,3.95a9.84,9.84,0,0,1,1.16-.07c2.63,0,3.73,1.2,4.17,2,.75,1.34.69,3.35-1.15,5.86,1.84,2.51,1.9,4.52,1.15,5.86-.94,1.7-2.88,2-4.17,2a10.61,10.61,0,0,1-1.16-.07c-1,2.35-2.48,3.94-4.48,3.94s-3.49-1.59-4.48-3.94a10.37,10.37,0,0,1-1.15.07c-1.29,0-3.23-.29-4.18-2-.75-1.34-.68-3.35,1.16-5.86-1.84-2.52-1.91-4.52-1.16-5.86.44-.79,1.55-2,4.18-2a9.44,9.44,0,0,1,1.15.07c1-2.35,2.48-3.95,4.48-3.95m0,5.23c.53-.22,1-.42,1.55-.59-.53-1.09-1.11-1.71-1.55-1.71s-1,.62-1.55,1.71c.51.17,1,.37,1.55.59m6.68,4.31c.69-1.07.86-1.88.68-2.21S52.46,70,51.47,70h-.26c.13.61.24,1.23.31,1.85.36.28.69.57,1,.87m-13.35,0c.32-.29.65-.59,1-.87.08-.62.18-1.24.31-1.85h-.26c-1,0-1.58.24-1.73.52s0,1.14.68,2.21m6.67,5.49a19.82,19.82,0,0,0,2.87-1.71,18.76,18.76,0,0,0,0-3.18,20.47,20.47,0,0,0-2.87-1.72A20.48,20.48,0,0,0,43,73.35a18.76,18.76,0,0,0,0,3.18,19.29,19.29,0,0,0,2.86,1.71m5.61,1.6c1,0,1.59-.22,1.75-.5s0-1.14-.68-2.22c-.32.3-.66.59-1,.88a18.1,18.1,0,0,1-.31,1.84h.25m-11.21,0h.24c-.12-.6-.23-1.21-.31-1.84-.35-.29-.68-.58-1-.88-.69,1.08-.87,1.89-.68,2.22s.77.5,1.75.5m5.6,3.89c.44,0,1-.62,1.55-1.7-.51-.17-1-.37-1.55-.59-.52.22-1,.42-1.55.59.54,1.08,1.12,1.7,1.55,1.7m0-10.26a1.47,1.47,0,1,1,0,2.93,1.47,1.47,0,0,1,0-2.93m0-12.26c-1.39,0-3.84.54-5.7,3.88-3.64,0-5.23,1.89-5.85,3s-1.39,3.57.51,6.84c-1.9,3.27-1.18,5.65-.51,6.84,1.07,1.93,3.15,3,5.85,3,1.86,3.34,4.31,3.87,5.7,3.87s3.85-.53,5.7-3.87c2.7,0,4.78-1.08,5.86-3,.66-1.19,1.39-3.57-.51-6.84,1.9-3.27,1.17-5.65.51-6.84s-2.22-3-5.86-3c-1.85-3.34-4.31-3.88-5.7-3.88Z"/><path class="c" d="M205.49,179.44a8.49,8.49,0,0,1-5.9-2.39,7.73,7.73,0,0,1-1.56,1.2,8.45,8.45,0,0,1-4.33,1.19,9.13,9.13,0,0,1-1.65-.16A1.35,1.35,0,0,1,191,178a1.39,1.39,0,0,1,1.08-1.38,4.64,4.64,0,0,0,1.34-.49l.12-.08-.19-.13a10.57,10.57,0,0,1-4.21-7.77V168l-.19.1a4.44,4.44,0,0,0-1.09.95,1.39,1.39,0,0,1-1,.47,1.32,1.32,0,0,1-.7-.2,1.39,1.39,0,0,1-.59-1.64,8.89,8.89,0,0,1,3.84-4.76,8.73,8.73,0,0,1,1.79-.78,8.31,8.31,0,0,1-.21-1.84,9,9,0,0,1,2.12-5.78,1.36,1.36,0,0,1,1-.49,1.45,1.45,0,0,1,.67.17,1.39,1.39,0,0,1,.63,1.63,4.79,4.79,0,0,0-.26,1.45,4.65,4.65,0,0,0,.05.66l.29-.13a10.55,10.55,0,0,1,8.32,0l.29.12a4.23,4.23,0,0,0-.21-2.11,1.38,1.38,0,0,1,.62-1.62,1.41,1.41,0,0,1,.68-.18,1.36,1.36,0,0,1,1,.49,9,9,0,0,1,2.11,5.78,8.45,8.45,0,0,1-.21,1.84,8.52,8.52,0,0,1,1.8.78,8.8,8.8,0,0,1,3.83,4.78,1.37,1.37,0,0,1-.59,1.62,1.32,1.32,0,0,1-.7.2h0a1.36,1.36,0,0,1-1-.48,4.92,4.92,0,0,0-1.1-.94l-.19-.11v.16a10.51,10.51,0,0,1-4.2,7.77l-.19.14.12.07a4.16,4.16,0,0,0,1.34.5,1.37,1.37,0,0,1,1.08,1.35,1.36,1.36,0,0,1-1.11,1.35A9,9,0,0,1,205.49,179.44ZM193.32,168a6.27,6.27,0,0,0,2.3,4.3,4.68,4.68,0,0,0-.6-2.58A4.53,4.53,0,0,0,193.32,168Zm12.54,0a4.58,4.58,0,0,0-1.69,1.72,4.64,4.64,0,0,0-.6,2.57A6.24,6.24,0,0,0,205.86,168Zm-6.27-1.78a1.2,1.2,0,1,0,1.2,1.19A1.19,1.19,0,0,0,199.59,166.25Zm-1.89-4.82a4.41,4.41,0,0,0,3.8,0,5.8,5.8,0,0,0-3.8,0Z"/><path class="a" d="M205.14,155a.37.37,0,0,1,.28.13,7.86,7.86,0,0,1,1.42,7.71,7.56,7.56,0,0,1,2.53.91,7.82,7.82,0,0,1,3.39,4.24.39.39,0,0,1-.16.45.37.37,0,0,1-.18.05.37.37,0,0,1-.27-.13,6,6,0,0,0-1.34-1.15,5.39,5.39,0,0,0-2.74-.75,5.49,5.49,0,0,0-4.77,2.81,5.71,5.71,0,0,0,2,7.69,5.39,5.39,0,0,0,1.64.62.36.36,0,0,1,.29.37.38.38,0,0,1-.29.37,8.11,8.11,0,0,1-1.46.14,7.47,7.47,0,0,1-3.82-1.05,7.64,7.64,0,0,1-2.08-1.83,7.45,7.45,0,0,1-5.89,2.88,8.11,8.11,0,0,1-1.46-.14.38.38,0,0,1-.29-.37.37.37,0,0,1,.29-.37,5.49,5.49,0,0,0,1.64-.62,5.71,5.71,0,0,0,2-7.69,5.49,5.49,0,0,0-4.77-2.81,5.39,5.39,0,0,0-2.74.75,6,6,0,0,0-1.34,1.15.37.37,0,0,1-.27.13.37.37,0,0,1-.18-.05.39.39,0,0,1-.16-.45,7.84,7.84,0,0,1,3.4-4.24,7.63,7.63,0,0,1,2.53-.91,7.8,7.8,0,0,1-.46-2.57,8,8,0,0,1,1.88-5.14.34.34,0,0,1,.28-.13.31.31,0,0,1,.18.05.38.38,0,0,1,.17.44,5.5,5.5,0,1,0,10.38,0A.38.38,0,0,1,205,155a.31.31,0,0,1,.18-.05m-5.55,14.66a2.2,2.2,0,1,0-2.19-2.2,2.19,2.19,0,0,0,2.19,2.2m0-11.73a9.4,9.4,0,0,1,3.76.78,4.09,4.09,0,0,1-1.35,1.86,6.82,6.82,0,0,0-4.82,0,4.17,4.17,0,0,1-1.35-1.87,9.43,9.43,0,0,1,3.76-.77m8.48,10a3.85,3.85,0,0,1,1,.14,9.48,9.48,0,0,1-3.8,7,4.17,4.17,0,0,1-1.12-1.95,7.28,7.28,0,0,0,2.69-5,3.87,3.87,0,0,1,1.22-.22m-17,0a3.8,3.8,0,0,1,1.21.21,7.26,7.26,0,0,0,2.69,5,4.13,4.13,0,0,1-1.12,2,9.55,9.55,0,0,1-3.81-7,3.94,3.94,0,0,1,1-.14m14-14.92a2.36,2.36,0,0,0-2.25,3.11c0,.11.07.22.1.33a11.41,11.41,0,0,0-3.39-.51,11.62,11.62,0,0,0-3.38.5,2.34,2.34,0,0,1,.09-.33,2.36,2.36,0,0,0-2.25-3.1,2.35,2.35,0,0,0-1.81.85,10,10,0,0,0-2.35,6.42,9.36,9.36,0,0,0,.08,1.18,9.1,9.1,0,0,0-1.17.58,9.89,9.89,0,0,0-4.28,5.31,2.38,2.38,0,0,0,2.24,3.15,2.35,2.35,0,0,0,1.56-.59,11.49,11.49,0,0,0,3.21,5.8,2.39,2.39,0,0,0-1.59,2.25,2.35,2.35,0,0,0,1.93,2.33,9.21,9.21,0,0,0,1.82.18,9.45,9.45,0,0,0,4.84-1.33,9.1,9.1,0,0,0,1.06-.73,8.31,8.31,0,0,0,1.05.74,9.52,9.52,0,0,0,6.68,1.14,2.35,2.35,0,0,0,1.91-2.28,2.41,2.41,0,0,0-1.59-2.3,11.44,11.44,0,0,0,3.2-5.8,2.42,2.42,0,0,0,1.57.59,2.37,2.37,0,0,0,2.23-3.17,9.72,9.72,0,0,0-4.26-5.29,10.6,10.6,0,0,0-1.17-.58,9.45,9.45,0,0,0,.07-1.18,10,10,0,0,0-2.35-6.43,2.34,2.34,0,0,0-1.8-.84Zm-5.55,14.66a.2.2,0,0,1-.19-.2.19.19,0,0,1,.19-.19.19.19,0,0,1,.2.19.2.2,0,0,1-.2.2Z"/><path class="c" d="M62.08,187.88a5.34,5.34,0,0,1-5.39-5.4V167.83a5.34,5.34,0,0,1,5.39-5.4H77a2.08,2.08,0,0,1,2.18,2.17v15.24a1.91,1.91,0,0,1-.52,1.42,15.92,15.92,0,0,0,0,2.39,2.11,2.11,0,0,1,.5,1.32v.74A2.15,2.15,0,0,1,77,187.88Zm0-5.86a.47.47,0,0,0-.46.46c0,.33.14.47.46.47h12V182Zm7.06-6.4v-2.93h2.94v-.93H69.14v-2.93h-.93v2.93H65.28v.93h2.93v2.93Z"/><path class="a" d="M77,163.43a1.08,1.08,0,0,1,1.18,1.17v15.24a.89.89,0,0,1-.44.88,12.66,12.66,0,0,0,0,3.37,1.3,1.3,0,0,1,.44.88v.74A1.16,1.16,0,0,1,77,186.88h-15a4.32,4.32,0,0,1-4.39-4.4V167.83a4.31,4.31,0,0,1,4.39-4.4H77M64.65,173.69h2.56v2.56a.37.37,0,0,0,.37.37h2.2a.36.36,0,0,0,.36-.37v-2.56h2.57a.38.38,0,0,0,.37-.37v-2.2a.37.37,0,0,0-.37-.36H70.14v-2.57a.36.36,0,0,0-.36-.36h-2.2a.37.37,0,0,0-.37.36v2.57H64.65a.37.37,0,0,0-.37.36v2.2a.38.38,0,0,0,.37.37M62.08,184h13V181h-13a1.46,1.46,0,0,0-1.46,1.46A1.38,1.38,0,0,0,62.08,184m16.13-4.11h0m0,0h0M77,161.43h-15a6.33,6.33,0,0,0-6.39,6.4v14.65a6.33,6.33,0,0,0,6.39,6.4H77a3.14,3.14,0,0,0,3.18-3.17V185a3.07,3.07,0,0,0-.53-1.68c0-.47,0-1.15,0-1.64a3.08,3.08,0,0,0,.54-1.81V164.6A3.07,3.07,0,0,0,77,161.43Z"/><path class="c" d="M21,193.4a1.56,1.56,0,0,1-1.55-1.55v-1.1A1.55,1.55,0,0,1,21,189.2v-1.87a4.63,4.63,0,0,1,1.92-3.77l-2.47-1.1a1.56,1.56,0,0,1-.92-1.41V173.8a2.11,2.11,0,0,1,.52-1.38l-.33-.67a1.8,1.8,0,0,1-.19-.79A1.56,1.56,0,0,1,21,169.41h6.78a9.81,9.81,0,0,1,9.8,9.79v10a1.55,1.55,0,0,1,1.46,1.55v1.1a1.55,1.55,0,0,1-1.55,1.55Z"/><path class="a" d="M27.82,170.41a8.8,8.8,0,0,1,8.8,8.79v10.26H22v-2.13a3.66,3.66,0,0,1,2-3.28l2.62-1.31a2.19,2.19,0,0,0,1.21-2v-2.31l-1,.51a1.09,1.09,0,0,0-.58.71l-.54,2.17a.55.55,0,0,1-.33.38l-1.35.54a.52.52,0,0,1-.21,0,.44.44,0,0,1-.22,0l-2.76-1.22a.56.56,0,0,1-.33-.5V173.8a1.11,1.11,0,0,1,.33-.78l.41-.41-.65-1.3a.73.73,0,0,1-.09-.35.55.55,0,0,1,.55-.55h6.78m-4.94,6.23a.92.92,0,1,0-.92-.92.92.92,0,0,0,.92.92M37.53,190.2a.54.54,0,0,1,.55.55v1.1a.55.55,0,0,1-.55.55H21a.55.55,0,0,1-.55-.55v-1.1a.55.55,0,0,1,.55-.55H37.53m-9.71-21.79H21A2.55,2.55,0,0,0,18.49,171a2.8,2.8,0,0,0,.3,1.24l.07.14a3,3,0,0,0-.37,1.46v7.25A2.57,2.57,0,0,0,20,183.38l1.12.49A5.64,5.64,0,0,0,20,187.33v1.11a2.55,2.55,0,0,0-1.47,2.31v1.1A2.56,2.56,0,0,0,21,194.4H37.53a2.55,2.55,0,0,0,2.55-2.55v-1.1a2.56,2.56,0,0,0-1.46-2.31V179.2a10.81,10.81,0,0,0-10.8-10.79Z"/><path class="c" d="M188.8,37.86a1.71,1.71,0,0,1-.85-.22,1.75,1.75,0,0,1-.65-2.37L189,32.34a1.66,1.66,0,0,1,.25-.34h-1.9a1.75,1.75,0,0,1,.26,2L185.91,37a1.74,1.74,0,0,1-1.5.87,1.68,1.68,0,0,1-.85-.22,1.76,1.76,0,0,1-.83-1.06,1.72,1.72,0,0,1,.17-1.31l1.68-2.93a1.66,1.66,0,0,1,.25-.34h-1.9a1.75,1.75,0,0,1,.27,2L181.51,37a1.73,1.73,0,0,1-3-1.72l1.68-2.93a2.13,2.13,0,0,1,.25-.34h-1.89a1.75,1.75,0,0,1,.26,2L177.12,37a1.74,1.74,0,0,1-1.51.87,1.71,1.71,0,0,1-.85-.22,1.73,1.73,0,0,1-.65-2.37l1.67-2.93a1.61,1.61,0,0,1,.55-.58,4.67,4.67,0,0,1-.21-8.77,5.38,5.38,0,0,1,9.22-3.07,4.53,4.53,0,0,1,1.27-.18,4.29,4.29,0,0,1,1.07.13v-.19a7.59,7.59,0,0,1,7.61-7.27,7.12,7.12,0,0,1,1.39.13,1.28,1.28,0,0,1,1.06,1.06A1.33,1.33,0,0,1,197.1,15,4.16,4.16,0,0,0,195,18.59a4.09,4.09,0,0,0,1.24,2.95,4.15,4.15,0,0,0,2.95,1.22,4.26,4.26,0,0,0,.8-.08l.09,0h.16a1.31,1.31,0,0,1,1.19.77,1.29,1.29,0,0,1-.21,1.39,7.61,7.61,0,0,1-5.91,2.78,3.92,3.92,0,0,1-.59-.05l-.5-.05a4.69,4.69,0,0,1-2.92,4.16l.05,0a1.75,1.75,0,0,1,.66,2.36L190.31,37A1.74,1.74,0,0,1,188.8,37.86Z"/><path class="a" d="M195.3,13.41a7,7,0,0,1,1.21.11.31.31,0,0,1,.1.57,5.17,5.17,0,0,0,2.56,9.67,4.82,4.82,0,0,0,1-.1h.06a.3.3,0,0,1,.23.5,6.65,6.65,0,0,1-5.16,2.44c-.23,0-.46-.05-.69-.07a5.14,5.14,0,0,0-3.22-4,5.08,5.08,0,0,0-2.7-2.82,6.62,6.62,0,0,1,6.62-6.32m-13.82,5.86A4.35,4.35,0,0,1,185,21.11a3.63,3.63,0,0,1,5.17,2.63,3.66,3.66,0,0,1-.66,7.26H177.81a3.67,3.67,0,0,1-.72-7.26s0,0,0-.07a4.4,4.4,0,0,1,4.4-4.4m9,13.2a.77.77,0,0,1,.36.09.75.75,0,0,1,.28,1l-1.68,2.93a.73.73,0,0,1-.64.37.8.8,0,0,1-.36-.09.73.73,0,0,1-.27-1l1.67-2.93a.74.74,0,0,1,.64-.37m-4.4,0a.81.81,0,0,1,.37.09.73.73,0,0,1,.27,1L185,36.49a.71.71,0,0,1-.63.37.74.74,0,0,1-.36-.09.73.73,0,0,1-.28-1l1.68-2.93a.71.71,0,0,1,.63-.37m-4.39,0a.8.8,0,0,1,.36.09.73.73,0,0,1,.27,1l-1.67,2.93a.74.74,0,0,1-.64.37.77.77,0,0,1-.36-.09.74.74,0,0,1-.28-1l1.68-2.93a.72.72,0,0,1,.64-.37m-4.4,0a.77.77,0,0,1,.36.09.75.75,0,0,1,.28,1l-1.68,2.93a.74.74,0,0,1-.64.37.8.8,0,0,1-.36-.09.73.73,0,0,1-.27-1l1.67-2.93a.73.73,0,0,1,.64-.37m18-21.06a8.6,8.6,0,0,0-8.53,7.33h-.16a5.23,5.23,0,0,0-1,.09,6.38,6.38,0,0,0-10.41,3.47,5.66,5.66,0,0,0-.47,9.81l-1.52,2.67a2.72,2.72,0,0,0,1,3.72,2.73,2.73,0,0,0,3.55-.75,2.56,2.56,0,0,0,.85.75,2.7,2.7,0,0,0,1.35.36,2.76,2.76,0,0,0,2.2-1.11,2.63,2.63,0,0,0,.84.75,2.77,2.77,0,0,0,1.36.36,2.73,2.73,0,0,0,2.19-1.11,2.66,2.66,0,0,0,.85.75,2.76,2.76,0,0,0,1.35.36,2.73,2.73,0,0,0,2.37-1.37l1.68-2.94a2.74,2.74,0,0,0,0-2.65,5.68,5.68,0,0,0,2.18-3.31h.23a8.63,8.63,0,0,0,6.7-3.16,2.3,2.3,0,0,0-1.77-3.78,2.12,2.12,0,0,0-.44,0,3.15,3.15,0,0,1-.61.06A3.19,3.19,0,0,1,196,18.59a3.14,3.14,0,0,1,1.61-2.75,2.31,2.31,0,0,0-.73-4.29,8.87,8.87,0,0,0-1.56-.14Z"/><path class="c" d="M229.84,140.54a4.66,4.66,0,0,1-2.09-8.83v-7.79a4.67,4.67,0,1,1,4.19,0v4.52a19.46,19.46,0,0,1,2.64-.37c1.3-.12,2.77-.25,3.21-.8a1.32,1.32,0,0,0,.2-.43,4.66,4.66,0,1,1,4.25,0,5.67,5.67,0,0,1-1.17,3.07c-1.56,1.93-4.08,2.17-6.1,2.35-.71.07-1.38.13-1.92.24a4.66,4.66,0,0,1-3.21,8Z"/><path class="a" d="M229.84,116.09a3.66,3.66,0,0,1,1.1,7.16v6.59a11.07,11.07,0,0,1,3.73-.77c1.64-.15,3.19-.3,3.9-1.18a2.76,2.76,0,0,0,.5-1.69,3.66,3.66,0,1,1,4.7-3.52h0a3.7,3.7,0,0,1-2.49,3.48,5,5,0,0,1-1,3.11c-1.29,1.6-3.48,1.81-5.42,2a9.36,9.36,0,0,0-3,.58,1.69,1.69,0,0,0-.69.62,3.66,3.66,0,1,1-5,3.41,3.68,3.68,0,0,1,2.57-3.5v-9.12a3.66,3.66,0,0,1,1.09-7.16m0,4.39a.73.73,0,1,0-.73-.73.74.74,0,0,0,.73.73m10.26,2.94a.74.74,0,1,0-.73-.74.74.74,0,0,0,.73.74m-10.26,13.19a.74.74,0,1,0-.73-.74.74.74,0,0,0,.73.74m0-22.52a5.67,5.67,0,0,0-3.09,10.41v6.63a5.67,5.67,0,1,0,8.12,2.14l.16,0c2.12-.19,5-.46,6.82-2.73a6.47,6.47,0,0,0,1.32-3.07,5.66,5.66,0,1,0-7.67-8.06,5.67,5.67,0,0,0-5.66-5.3Zm3.1,10.41a5.49,5.49,0,0,0,1.51-1.45,5.73,5.73,0,0,0,1.83,3.81c-.55.1-1.28.17-1.8.22s-1,.09-1.54.16V124.5Z"/><path class="c" d="M56.91,158.45A1.74,1.74,0,0,1,55.2,157H42.55a1.74,1.74,0,0,1-1.72,1.47H39.35a1.74,1.74,0,0,1-1.72-1.93,16.15,16.15,0,0,1,6.59-10.79,16.12,16.12,0,0,1-6.59-10.78,1.76,1.76,0,0,1,.43-1.36,1.74,1.74,0,0,1,1.3-.58h1.47a1.74,1.74,0,0,1,1.73,1.46H55.21A1.74,1.74,0,0,1,56.92,133h1.49a1.74,1.74,0,0,1,1.72,1.93c-.31,2.55-1.91,8.91-10.14,13-.3.15-.59.3-.87.46h.39l1-.54a23.94,23.94,0,0,0,2.57-1.55l.63-.45.59.5a16,16,0,0,1,5.79,10.16,1.72,1.72,0,0,1-1.72,1.93Z"/><path class="a" d="M40.85,134a.73.73,0,0,1,.72.63,7.38,7.38,0,0,0,.16.83H56c.07-.32.12-.6.15-.83a.73.73,0,0,1,.73-.63h1.49a.73.73,0,0,1,.73.82c-.27,2.19-1.72,8.3-9.6,12.21a17.81,17.81,0,0,0-3.6,2.36h5.84c-.26-.22-.49-.44-.78-.65a24.07,24.07,0,0,0,2.68-1.63,15,15,0,0,1,5.45,9.52.73.73,0,0,1-.73.81H56.91a.73.73,0,0,1-.72-.64c0-.22-.09-.51-.16-.83H41.72c-.07.32-.12.61-.15.83a.74.74,0,0,1-.74.64H39.35a.72.72,0,0,1-.72-.81c.23-2,1.43-7,7.32-10.91-5.89-3.86-7.09-8.94-7.32-10.9a.73.73,0,0,1,.73-.82h1.49m3,5.86H53.92a12.8,12.8,0,0,0,1-1.47h-12a11.48,11.48,0,0,0,1,1.47m5,4.19a16.91,16.91,0,0,0,2.94-2H45.94a17.3,17.3,0,0,0,2.94,2m-6,9h12a12.8,12.8,0,0,0-1-1.47h-10a11.48,11.48,0,0,0-1,1.47m-2-21.05h-1.5a2.73,2.73,0,0,0-2.71,3.05,17,17,0,0,0,6,10.67,17,17,0,0,0-6,10.67,2.77,2.77,0,0,0,.67,2.14,2.74,2.74,0,0,0,2,.91h1.48A2.76,2.76,0,0,0,43.26,158H54.5a2.74,2.74,0,0,0,2.41,1.47h1.5a2.72,2.72,0,0,0,2.7-3.06,17,17,0,0,0-6-10.64,16.86,16.86,0,0,0,6-10.68A2.74,2.74,0,0,0,58.41,132H56.93a2.76,2.76,0,0,0-2.43,1.46H43.26A2.74,2.74,0,0,0,40.85,132Z"/><path class="c" d="M25.33,127.2a15.65,15.65,0,0,1-13.92-8.67,2.51,2.51,0,0,1,0-2.25,15.52,15.52,0,0,1,27.85,0,2.46,2.46,0,0,1,0,2.24A15.64,15.64,0,0,1,25.33,127.2Zm0-15.39a5.6,5.6,0,1,0,4,9.55,5.54,5.54,0,0,0,1.63-4A5.6,5.6,0,0,0,25.33,111.81Zm0,11a5.21,5.21,0,0,1-1.41-.19A5.4,5.4,0,0,1,20.14,116l.38-1.41,1.18.87a1.17,1.17,0,0,0,.7.23,1.2,1.2,0,0,0,.71-.23,1.19,1.19,0,0,0,.25-1.67l-.85-1.15,1.38-.4a5.26,5.26,0,0,1,1.43-.21h0a5.6,5.6,0,0,1,1.43.18,5.39,5.39,0,0,1-1.41,10.59Z"/><path class="a" d="M25.33,108.61a14.68,14.68,0,0,1,13,8.13,1.48,1.48,0,0,1,0,1.33,14.51,14.51,0,0,1-26.06,0,1.42,1.42,0,0,1,0-1.33,14.68,14.68,0,0,1,13-8.13m0,15.39h0a6.6,6.6,0,1,0-6.61-6.6,6.58,6.58,0,0,0,6.61,6.6m0-11a4.48,4.48,0,0,1,1.15.15,4.39,4.39,0,0,1-1.15,8.62,4.54,4.54,0,0,1-1.15-.15,4.38,4.38,0,0,1-3.08-5.38,2.19,2.19,0,0,0,3.06-3.07,4.17,4.17,0,0,1,1.16-.17h0m0-6.4a16.65,16.65,0,0,0-14.81,9.21,3.49,3.49,0,0,0,0,3.16,16.51,16.51,0,0,0,29.63,0,3.53,3.53,0,0,0,0-3.15,16.68,16.68,0,0,0-14.82-9.22Zm-3.43,7.74a4.31,4.31,0,0,1,.37-.37l.29.39a.17.17,0,0,1,0,.14.15.15,0,0,1-.07.12.17.17,0,0,1-.12,0,.15.15,0,0,1-.11,0l-.39-.28Z"/><path class="c" d="M175,169.88a1.72,1.72,0,0,1-1.23-.51l-1.71-1.91-1.66,1.87a1.75,1.75,0,0,1-1.27.55,1.69,1.69,0,0,1-1.22-.51l-1.85-2.07-.9.67a1.68,1.68,0,0,1-1.15.45,1.74,1.74,0,0,1-1.74-1.74V154.59a10.07,10.07,0,0,1,9.49-10.16h.3a9.81,9.81,0,0,1,9.8,9.79v12.46a1.73,1.73,0,0,1-.55,1.27,1.75,1.75,0,0,1-1.19.47h0A1.72,1.72,0,0,1,179,168l-.89-.67-1.81,2A1.75,1.75,0,0,1,175,169.88Zm0-16.12a.47.47,0,1,0,.46.46A.47.47,0,0,0,175,153.76Zm-5.87,0a.47.47,0,1,0,.47.46A.47.47,0,0,0,169.15,153.76Z"/><path class="a" d="M172.08,145.43a8.8,8.8,0,0,1,8.8,8.79v12.46a.74.74,0,0,1-.74.74.71.71,0,0,1-.51-.22l-1.14-.85a.72.72,0,0,0-.44-.14.74.74,0,0,0-.55.24l-2,2.22a.74.74,0,0,1-1,0l-1.87-2.1a.72.72,0,0,0-1.09,0l-1.87,2.1a.73.73,0,0,1-.52.21.77.77,0,0,1-.52-.21l-2-2.22a.75.75,0,0,0-.55-.24.72.72,0,0,0-.44.14l-1.14.85a.71.71,0,0,1-.51.22.74.74,0,0,1-.74-.74V154.59a9,9,0,0,1,8.52-9.16h.27M175,155.69a1.47,1.47,0,1,0-1.47-1.47,1.47,1.47,0,0,0,1.47,1.47m-5.87,0a1.47,1.47,0,1,0,0-2.93,1.47,1.47,0,0,0,0,2.93m2.93-12.26h-.33a11.05,11.05,0,0,0-10.46,11.15v12.09a2.74,2.74,0,0,0,2.74,2.74,2.7,2.7,0,0,0,1.79-.68l.12-.09,1.2,1.34,0,0,0,0a2.74,2.74,0,0,0,3.87,0l0,0,0,0,.91-1,.92,1,0,0,0,0a2.74,2.74,0,0,0,3.87,0l0,0,0,0,1.19-1.34.13.09a2.7,2.7,0,0,0,1.79.68,2.74,2.74,0,0,0,2.74-2.74V154.22a10.8,10.8,0,0,0-10.8-10.79Z"/><path class="c" d="M177.08,69.88a3,3,0,0,1-1.11.22,2.77,2.77,0,0,1-1.1-.22l.39.54-2.81-.84a12.31,12.31,0,0,1-7.88-7L164,61.14h.1l-.05-.21a12,12,0,0,1,0-6.38l.05-.21H164l.58-1.38a12.31,12.31,0,0,1,7.87-7.06l2.81-.83-.39.54a2.87,2.87,0,0,1,1.11-.23,3,3,0,0,1,1.1.22l-.39-.53,2.81.83A12.35,12.35,0,0,1,187.37,53l.58,1.38h-.1l.05.22a12.29,12.29,0,0,1,0,6.37l-.06.21H188l-.58,1.39a12.3,12.3,0,0,1-7.87,7l-2.82.84Z"/><path class="a" d="M176,46.38c1.82,0,3.39,2.87,4.05,7h-8.1c.66-4.09,2.23-7,4.05-7m3.24.48a11.37,11.37,0,0,1,7.23,6.48H181.5a15.68,15.68,0,0,0-2.29-6.48m-6.48,0a15.4,15.4,0,0,0-2.29,6.48h-4.95a11.39,11.39,0,0,1,7.24-6.48m14.2,8a11.2,11.2,0,0,1,0,5.86h-5.25a28.69,28.69,0,0,0,0-5.86h5.25m-6.72,0a28.69,28.69,0,0,1,0,5.86h-8.49c-.09-.94-.15-1.91-.15-2.93s.06-2,.15-2.93h8.49m-10,0a28.46,28.46,0,0,0-.15,2.93c0,1,0,2,.14,2.93H165a11.2,11.2,0,0,1,0-5.86h5.26m16.19,7.33a11.39,11.39,0,0,1-7.24,6.48,15.35,15.35,0,0,0,2.29-6.48h4.95m-6.43,0c-.66,4.09-2.23,7-4.05,7s-3.39-2.87-4.05-7H180m-9.58,0a15.35,15.35,0,0,0,2.29,6.48,11.39,11.39,0,0,1-7.24-6.48h4.95m7.34-18.87-1.82.54-1.81-.54.64.89-2.63.78a13.3,13.3,0,0,0-8.51,7.63l-.1.24h-.09l-.14.55-.83,2h.35a12.64,12.64,0,0,0,0,4.8h-.36l.84,2,.14.54h.09l.1.25a13.31,13.31,0,0,0,8.51,7.62l2.64.78-.64.89,1.81-.54,1.81.54-.63-.89,2.63-.78a13.31,13.31,0,0,0,8.51-7.62l.1-.25h.07l.13-.45.87-2.08h-.36a13,13,0,0,0,.22-2.4,13.15,13.15,0,0,0-.22-2.4h.36l-.84-2-.14-.55h-.09l-.1-.24a13.32,13.32,0,0,0-8.51-7.63l-2.64-.78.64-.89Z"/><path class="c" d="M222.08,80.45a1.56,1.56,0,0,1-1.19-.55,1.58,1.58,0,0,1-.33-1.27l.46-2.57h-2.49L218,79.18a1.54,1.54,0,0,1-1.52,1.27h-1.86a1.56,1.56,0,0,1-1.19-.55,1.54,1.54,0,0,1-.34-1.27l.46-2.57h-2.23a1.56,1.56,0,0,1-1.53-1.83l.33-1.83a1.55,1.55,0,0,1,1.53-1.28h2.78l.69-3.86h-2.23a1.56,1.56,0,0,1-1.19-.55,1.58,1.58,0,0,1-.34-1.27l.33-1.83a1.55,1.55,0,0,1,1.53-1.28H216l.56-3.12a1.55,1.55,0,0,1,1.53-1.28h1.86a1.5,1.5,0,0,1,1.18.56,1.52,1.52,0,0,1,.34,1.26L221,62.33h2.49l.56-3.12a1.54,1.54,0,0,1,1.52-1.28h1.86a1.55,1.55,0,0,1,1.19.56,1.53,1.53,0,0,1,.34,1.27l-.46,2.57h2.23a1.56,1.56,0,0,1,1.53,1.82L231.91,66a1.55,1.55,0,0,1-1.53,1.28H227.6l-.69,3.86h2.23A1.56,1.56,0,0,1,230.67,73l-.33,1.83a1.55,1.55,0,0,1-1.53,1.28H226l-.56,3.12a1.54,1.54,0,0,1-1.53,1.27Zm-.18-9.33.69-3.86H220.1l-.69,3.86Z"/><path class="a" d="M227.41,58.93a.55.55,0,0,1,.54.65l-.67,3.75h3.43a.55.55,0,0,1,.54.65l-.33,1.83a.54.54,0,0,1-.54.45h-3.62l-1,5.86h3.43a.55.55,0,0,1,.54.65l-.33,1.83a.55.55,0,0,1-.54.46h-3.62l-.7,3.94a.56.56,0,0,1-.55.45h-1.86a.55.55,0,0,1-.54-.64l.67-3.75h-4.52L217,79a.56.56,0,0,1-.54.45h-1.86a.55.55,0,0,1-.54-.64l.67-3.75h-3.43a.55.55,0,0,1-.54-.65l.33-1.83a.54.54,0,0,1,.54-.46h3.62l1-5.86h-3.43a.55.55,0,0,1-.54-.65l.33-1.83a.54.54,0,0,1,.54-.45h3.62l.7-3.94a.56.56,0,0,1,.55-.46h1.86a.55.55,0,0,1,.54.65l-.67,3.75h4.52l.7-3.94a.55.55,0,0,1,.54-.46h1.86m-9.19,13.19h4.52l1-5.86h-4.52l-1,5.86m9.19-15.19h-1.86A2.55,2.55,0,0,0,223,59l-.41,2.3h-.45l.25-1.4a2.57,2.57,0,0,0-2.51-3h-1.86a2.54,2.54,0,0,0-2.51,2.1l-.41,2.3h-1.95a2.54,2.54,0,0,0-2.51,2.1l-.33,1.83a2.55,2.55,0,0,0,.56,2.09,2.52,2.52,0,0,0,2,.91h1l-.33,1.86h-1.95a2.54,2.54,0,0,0-2.51,2.11l-.33,1.83a2.55,2.55,0,0,0,2.51,3h1l-.25,1.39a2.54,2.54,0,0,0,2.51,3h1.86a2.54,2.54,0,0,0,2.51-2.1l.41-2.29h.45l-.25,1.39a2.55,2.55,0,0,0,2.51,3h1.86a2.54,2.54,0,0,0,2.51-2.1l.41-2.29h1.95A2.55,2.55,0,0,0,231.32,75l.33-1.83a2.57,2.57,0,0,0-2.51-3h-1l.33-1.86h1.95a2.54,2.54,0,0,0,2.51-2.1l.33-1.83a2.55,2.55,0,0,0-.56-2.09,2.52,2.52,0,0,0-1.95-.91h-1l.25-1.4a2.53,2.53,0,0,0-.55-2.08,2.56,2.56,0,0,0-2-.92Zm-6.47,11.33h.45l-.33,1.86h-.45l.33-1.86Z"/><path class="c" d="M12.64,243.27c-3,0-5.39-1.73-5.39-3.93s2.37-3.94,5.39-3.94l.47,0V224.61a2.45,2.45,0,0,1,1.72-2.35l14.68-4.33a2.13,2.13,0,0,1,.72-.11,2.47,2.47,0,0,1,2.47,2.46V236.4c0,2.21-2.37,3.94-5.4,3.94s-5.4-1.73-5.4-3.94,2.37-3.93,5.4-3.93l.47,0v-6L18,229.38v10C18,241.54,15.67,243.27,12.64,243.27Z"/><path class="a" d="M30.23,218.82a1.46,1.46,0,0,1,1.47,1.46V236.4c0,1.62-2,2.94-4.4,2.94s-4.4-1.32-4.4-2.94,2-2.93,4.4-2.93a6.3,6.3,0,0,1,1.47.18V225.2L17,228.63v10.71c0,1.62-2,2.93-4.4,2.93S8.25,241,8.25,239.34s2-2.94,4.39-2.94a6.88,6.88,0,0,1,1.47.18v-12a1.48,1.48,0,0,1,1-1.4l14.65-4.33a1.72,1.72,0,0,1,.44-.06m0-2a3.37,3.37,0,0,0-1,.16L14.57,221.3a3.44,3.44,0,0,0-2.46,3.31v9.81c-3.33.2-5.86,2.29-5.86,4.92s2.81,4.93,6.39,4.93,6.4-2.17,6.4-4.93v-9.21l7.73-2.26v3.62c-3.33.2-5.87,2.29-5.87,4.91s2.81,4.94,6.4,4.94,6.4-2.17,6.4-4.94V220.28a3.47,3.47,0,0,0-3.47-3.46Z"/><path class="c" d="M233.26,29.19a4.91,4.91,0,0,1-.88-.07,10.1,10.1,0,0,1-4.87-3l-1.27.13a4.27,4.27,0,0,1-.56.05c-3.56,0-9.61-3.15-10.35-7.34l-1.45-8.22a4,4,0,0,1,2-4.23,21.85,21.85,0,0,1,10.57-2.74,22.37,22.37,0,0,1,3.45.27,3.94,3.94,0,0,1,2.56,1.64l.73,1a21.77,21.77,0,0,1,9.93,2.73,4,4,0,0,1,2,4.23l-1.45,8.23c-.74,4.18-6.79,7.33-10.35,7.33Zm-2.36-8a3.94,3.94,0,0,0,2.59,1.64,4.34,4.34,0,0,0,.71.06,4,4,0,0,0,2.28-.71,10.37,10.37,0,0,1-1.12.06,10.11,10.11,0,0,1-1.73-.15A9.63,9.63,0,0,1,230.9,21.19Zm-8.62-1a9.63,9.63,0,0,0,2.19,1,6.51,6.51,0,0,1-.21-2.25A4.41,4.41,0,0,0,222.4,20Zm-2.09-2.08a1.79,1.79,0,0,0,.47.79A4.44,4.44,0,0,1,224,15l1-.29.79-4.48a4.18,4.18,0,0,1,.63-1.57,16.7,16.7,0,0,0-7.56,1.8l.24,1.34.17-1.32,1.27.66a1.77,1.77,0,0,0,.79.17l.38,0a1.89,1.89,0,0,0,1.06-.54l1-1,.65,1.26a3,3,0,0,1,.29.81,2.84,2.84,0,0,1-5.25,1.9Z"/><path class="a" d="M226.42,4.74a21.55,21.55,0,0,1,3.29.26,3,3,0,0,1,1.91,1.24,21.08,21.08,0,0,0-2.62.24,4.4,4.4,0,0,0-2.36,1.19h-.22a17.89,17.89,0,0,0-8.66,2.25.23.23,0,0,0,0,.12l1.45,8.22c.27,1.52,3,3.29,5.13,3.88a12,12,0,0,0,1.81,3.1,3.42,3.42,0,0,1-.46,0c-3.12,0-8.71-2.82-9.36-6.51l-1.46-8.22a3,3,0,0,1,1.47-3.19,20.84,20.84,0,0,1,10.09-2.61m6.1,2.92a20.71,20.71,0,0,1,10.09,2.62,3,3,0,0,1,1.47,3.18l-1.45,8.22c-.66,3.69-6.25,6.51-9.37,6.51a3.8,3.8,0,0,1-.7-.06c-2.89-.5-8-5.51-7.25-9.49l1.45-8.23a3,3,0,0,1,2.47-2.49,21.55,21.55,0,0,1,3.29-.26m-2.43,7.6a2.74,2.74,0,0,1,1.25-.28,2.71,2.71,0,0,1,.56,0,2.84,2.84,0,0,1,1.61.84,1.6,1.6,0,0,0,.19-.53,1.82,1.82,0,0,0-1.49-2.11,1.66,1.66,0,0,0-.32,0,1.83,1.83,0,0,0-1.8,1.51,1.69,1.69,0,0,0,0,.55m5.77,1a2.81,2.81,0,0,1,1.25-.29,3.64,3.64,0,0,1,.56,0,2.91,2.91,0,0,1,1.62.84,1.78,1.78,0,0,0,.18-.52A1.83,1.83,0,0,0,238,14.24l-.32,0a1.83,1.83,0,0,0-1.8,1.52,1.69,1.69,0,0,0,0,.55m-1.65,7.61a4.87,4.87,0,0,0,4.72-3.54,7.07,7.07,0,0,1-3.57.89,9.29,9.29,0,0,1-1.56-.13,7.59,7.59,0,0,1-4.56-2.47,4.88,4.88,0,0,0,4.08,5.17,4.47,4.47,0,0,0,.89.08M223.48,11.43a1.63,1.63,0,0,1,.19.52,1.82,1.82,0,0,1-1.49,2.12,1.66,1.66,0,0,1-.32,0,1.83,1.83,0,0,1-1.8-1.51,1.75,1.75,0,0,1,0-.56,2.62,2.62,0,0,0,1.25.29,3.64,3.64,0,0,0,.56-.05,2.84,2.84,0,0,0,1.61-.84m.81,4.54-.35,2a5.61,5.61,0,0,0-2.29,1.42A3.43,3.43,0,0,1,224.29,16m2.13-13.23A22.89,22.89,0,0,0,215.36,5.6a5,5,0,0,0-2.47,5.28l1.46,8.23c.83,4.73,7.35,8.16,11.33,8.16a5.47,5.47,0,0,0,.59,0h.08l.79-.08a10.57,10.57,0,0,0,5.07,3,5.87,5.87,0,0,0,1,.09c4,0,10.5-3.43,11.34-8.16l1.45-8.22a5,5,0,0,0-2.47-5.28,22.81,22.81,0,0,0-9.89-2.84l-.44-.62A5,5,0,0,0,230,3a22.89,22.89,0,0,0-3.6-.28Zm-1.56,7Z"/><path class="c" d="M94,175.06a9.12,9.12,0,0,1-9.06-9.15c0-3,1.44-5,3-7.23a24.06,24.06,0,0,0,3.8-7.34,2.37,2.37,0,0,1,2.3-1.73,2.35,2.35,0,0,1,2.3,1.75,23.88,23.88,0,0,0,3.81,7.33c1.52,2.16,3,4.21,3,7.22A9.11,9.11,0,0,1,94,175.06Z"/><path class="a" d="M94,150.61a1.37,1.37,0,0,1,1.34,1c2.15,7.26,6.72,9.17,6.72,14.29a8.06,8.06,0,1,1-16.12,0c0-5.1,4.58-7.06,6.72-14.29a1.37,1.37,0,0,1,1.34-1m0,20.52a.73.73,0,1,0,0-1.46A3.67,3.67,0,0,1,90.32,166a.74.74,0,0,0-1.47,0A5.13,5.13,0,0,0,94,171.13m0-22.52a3.37,3.37,0,0,0-3.25,2.44,23,23,0,0,1-3.67,7.06c-1.62,2.31-3.14,4.49-3.14,7.8a10.06,10.06,0,1,0,20.12,0c0-3.32-1.52-5.5-3.13-7.8a22.7,22.7,0,0,1-3.67-7.06A3.35,3.35,0,0,0,94,148.61Z"/><path class="c" d="M200.88,112a1.74,1.74,0,0,1-1.55-2.51l1.18-1.89h-5.16a2,2,0,0,1-1.55-3.38l2.3-2.6a2,2,0,0,1-.86-3.23l2.28-2.65a2,2,0,0,1-.75-3.27l5-5.39a1.73,1.73,0,0,1,1.26-.53,1.71,1.71,0,0,1,1.27.54l5.05,5.38a2,2,0,0,1-.76,3.27l2.28,2.65a2,2,0,0,1-.85,3.23l2.3,2.6a2,2,0,0,1-1.55,3.38h-5.17l1.13,1.81a1.75,1.75,0,0,1,0,1.77,1.71,1.71,0,0,1-1.47.82Z"/><path class="a" d="M203.08,87.51a.73.73,0,0,1,.54.22l5,5.38a1,1,0,0,1,.19,1.1,1,1,0,0,1-1,.63h-1.33L210.16,99a1,1,0,0,1,.15,1.1,1,1,0,0,1-.95.6H208l3.66,4.14a1,1,0,0,1,.16,1.12,1.07,1.07,0,0,1-1,.6h-6.27v1.12l1.39,2.22a.74.74,0,0,1-.66,1.06h-4.39a.73.73,0,0,1-.66-1.06l1.39-2.22v-1.12h-6.27a1.07,1.07,0,0,1-1-.6,1,1,0,0,1,.16-1.12l3.66-4.14h-1.4a1.05,1.05,0,0,1-1-.6A1,1,0,0,1,196,99l3.58-4.16h-1.32a1.05,1.05,0,0,1-1-.63,1,1,0,0,1,.2-1.1l5.05-5.38a.71.71,0,0,1,.53-.22m0-2a2.74,2.74,0,0,0-2,.85L196,91.74a3,3,0,0,0-.57,3.27,3,3,0,0,0,.57.87l-1.55,1.82A3,3,0,0,0,194,101a3.4,3.4,0,0,0,.56.82l-1.55,1.75a3,3,0,0,0-.48,3.28,3.07,3.07,0,0,0,2.78,1.76h3.36l-.18.28-.05.08,0,.08a2.74,2.74,0,0,0,2.45,4h4.39a2.74,2.74,0,0,0,2.44-4l0-.08-.05-.08-.17-.28h3.36a3.07,3.07,0,0,0,2.77-1.76,3,3,0,0,0-.47-3.28l-1.55-1.75a3.1,3.1,0,0,0,.55-.82,3,3,0,0,0-.44-3.25l-1.56-1.82a2.81,2.81,0,0,0,.58-.88,3,3,0,0,0-.58-3.26l-5.05-5.38a2.72,2.72,0,0,0-2-.85Z"/><polygon class="c" points="92.01 139.75 92.01 102.09 124.63 83.26 157.24 102.09 157.24 139.75 124.63 158.59 92.01 139.75"/><path class="a" d="M124.63,84.41l31.61,18.26v36.51l-31.61,18.25L93,139.18V102.67l31.62-18.26m0-2.3-1,.57L92,100.94l-1,.57v38.82l1,.58,31.62,18.25,1,.58,1-.58,31.61-18.25,1-.58V101.51l-1-.57L125.63,82.68l-1-.57Z"/><text class="d" transform="translate(102.4 129.36)">U<tspan class="e" x="15.64" y="0">T</tspan><tspan x="29.53" y="0">C</tspan></text><path class="f" d="M50.72,216.56a12.36,12.36,0,1,1,12.36-12.35A12.37,12.37,0,0,1,50.72,216.56Zm0-20.15A7.79,7.79,0,0,0,45.51,210a5.3,5.3,0,0,1-.19-1.39,5.41,5.41,0,0,1,5.4-5.39,3.4,3.4,0,0,0,0-6.8Zm0,11.73a.47.47,0,0,0,0,.93.47.47,0,1,0,0-.93Zm0-5.87a2.47,2.47,0,1,1,2.47-2.46A2.46,2.46,0,0,1,50.72,202.27Z"/><path class="a" d="M50.72,192.85a11.36,11.36,0,1,1-11.36,11.36,11.35,11.35,0,0,1,11.36-11.36m0,20.15a4.4,4.4,0,1,1,0-8.79,4.4,4.4,0,0,0,0-8.8,8.8,8.8,0,0,0,0,17.59m0-2.93a1.47,1.47,0,1,0,0-2.93,1.47,1.47,0,0,0,0,2.93m0-11.73a1.47,1.47,0,1,1,0,2.93,1.47,1.47,0,0,1,0-2.93m0-7.49a13.36,13.36,0,1,0,13.36,13.36,13.38,13.38,0,0,0-13.36-13.36ZM44.53,207a6.69,6.69,0,0,1-.6-2.79,6.82,6.82,0,0,1,3.76-6.09,3.49,3.49,0,0,0,.93,4.44A6.44,6.44,0,0,0,44.53,207Z"/><path class="f" d="M155.35,91.16a2.1,2.1,0,0,1-2.1-2.1v-6h-3.4a2.1,2.1,0,0,1-2.1-2.1V79.53a2.1,2.1,0,0,1,2.1-2.1h.37a10.1,10.1,0,0,1-1-4.13c0-4.4,2.88-7.59,6.86-7.59s6.86,3.19,6.86,7.59a10.1,10.1,0,0,1-1,4.13h.37a2.1,2.1,0,0,1,2.1,2.1V81a2.1,2.1,0,0,1-2.1,2.1h-3.4v6a2.1,2.1,0,0,1-2.1,2.1Zm.73-19.79c-1.08,0-1.2,1.35-1.2,1.93a6.08,6.08,0,0,0,1.2,3,6.08,6.08,0,0,0,1.2-3C157.28,72.72,157.16,71.37,156.08,71.37Z"/><path class="a" d="M156.08,66.71c3.24,0,5.86,2.55,5.86,6.59a10.2,10.2,0,0,1-1.67,5.13h2a1.1,1.1,0,0,1,1.1,1.1V81a1.1,1.1,0,0,1-1.1,1.1h-4.4v7a1.1,1.1,0,0,1-1.1,1.1h-1.46a1.1,1.1,0,0,1-1.1-1.1v-7h-4.4a1.11,1.11,0,0,1-1.1-1.1V79.53a1.1,1.1,0,0,1,1.1-1.1h2.05a10.11,10.11,0,0,1-1.68-5.13c0-4,2.62-6.59,5.86-6.59m0,11.21a8.12,8.12,0,0,0,2.2-4.62c0-1.81-.84-2.93-2.2-2.93s-2.2,1.12-2.2,2.93a8.18,8.18,0,0,0,2.2,4.62m0-13.21c-4.55,0-7.86,3.61-7.86,8.59a10,10,0,0,0,.6,3.31,3.12,3.12,0,0,0-2.07,2.92V81a3.1,3.1,0,0,0,3.1,3.1h2.4v5a3.1,3.1,0,0,0,3.1,3.1h1.46a3.1,3.1,0,0,0,3.1-3.1v-5h2.4a3.1,3.1,0,0,0,3.1-3.1V79.53a3.11,3.11,0,0,0-2.06-2.92,10.29,10.29,0,0,0,.59-3.31c0-5-3.3-8.59-7.86-8.59Zm0,7.66h0a1.9,1.9,0,0,1,.18.93,2.59,2.59,0,0,1-.2.9,2.84,2.84,0,0,1-.2-.9,1.9,1.9,0,0,1,.18-.93Z"/><path class="f" d="M45.85,87.67c-2.07,0-3.86-1.38-5.1-3.89h-.53c-2.39,0-4.14-.86-5-2.5-.59-1.05-1.21-3.23.81-6.35-2-3.12-1.4-5.3-.81-6.35s1.87-2.5,5-2.5h.53c1.24-2.51,3-3.89,5.1-3.89s3.87,1.38,5.1,3.89h.54c3.17,0,4.52,1.56,5,2.5s1.21,3.23-.81,6.35c2,3.12,1.39,5.3.81,6.35-.92,1.64-2.66,2.5-5,2.5H51C49.72,86.29,47.93,87.67,45.85,87.67Zm0-5.06.06-.07-.06,0-.06,0Zm0-15.25.06,0-.06-.07-.06.07Z"/><path class="a" d="M45.85,63.21c2,0,3.5,1.6,4.48,3.95a9.84,9.84,0,0,1,1.16-.07c2.63,0,3.73,1.2,4.17,2,.75,1.34.69,3.35-1.15,5.86,1.84,2.51,1.9,4.52,1.15,5.86-.94,1.7-2.88,2-4.17,2a10.61,10.61,0,0,1-1.16-.07c-1,2.35-2.48,3.94-4.48,3.94s-3.49-1.59-4.48-3.94a10.37,10.37,0,0,1-1.15.07c-1.29,0-3.23-.29-4.18-2-.75-1.34-.68-3.35,1.16-5.86-1.84-2.52-1.91-4.52-1.16-5.86.44-.79,1.55-2,4.18-2a9.44,9.44,0,0,1,1.15.07c1-2.35,2.48-3.95,4.48-3.95m0,5.23c.53-.22,1-.42,1.55-.59-.53-1.09-1.11-1.71-1.55-1.71s-1,.62-1.55,1.71c.51.17,1,.37,1.55.59m6.68,4.31c.69-1.07.86-1.88.68-2.21S52.46,70,51.47,70h-.26c.13.61.24,1.23.31,1.85.36.28.69.57,1,.87m-13.35,0c.32-.29.65-.59,1-.87.08-.62.18-1.24.31-1.85h-.26c-1,0-1.58.24-1.73.52s0,1.14.68,2.21m6.67,5.49a19.82,19.82,0,0,0,2.87-1.71,18.76,18.76,0,0,0,0-3.18,20.47,20.47,0,0,0-2.87-1.72A20.48,20.48,0,0,0,43,73.35a18.76,18.76,0,0,0,0,3.18,19.29,19.29,0,0,0,2.86,1.71m5.61,1.6c1,0,1.59-.22,1.75-.5s0-1.14-.68-2.22c-.32.3-.66.59-1,.88a18.1,18.1,0,0,1-.31,1.84h.25m-11.21,0h.24c-.12-.6-.23-1.21-.31-1.84-.35-.29-.68-.58-1-.88-.69,1.08-.87,1.89-.68,2.22s.77.5,1.75.5m5.6,3.89c.44,0,1-.62,1.55-1.7-.51-.17-1-.37-1.55-.59-.52.22-1,.42-1.55.59.54,1.08,1.12,1.7,1.55,1.7m0-10.26a1.47,1.47,0,1,1,0,2.93,1.47,1.47,0,0,1,0-2.93m0-12.26c-1.39,0-3.84.54-5.7,3.88-3.64,0-5.23,1.89-5.85,3s-1.39,3.57.51,6.84c-1.9,3.27-1.18,5.65-.51,6.84,1.07,1.93,3.15,3,5.85,3,1.86,3.34,4.31,3.87,5.7,3.87s3.85-.53,5.7-3.87c2.7,0,4.78-1.08,5.86-3,.66-1.19,1.39-3.57-.51-6.84,1.9-3.27,1.17-5.65.51-6.84s-2.22-3-5.86-3c-1.85-3.34-4.31-3.88-5.7-3.88Z"/><path class="f" d="M205.49,179.44a8.49,8.49,0,0,1-5.9-2.39,7.73,7.73,0,0,1-1.56,1.2,8.45,8.45,0,0,1-4.33,1.19,9.13,9.13,0,0,1-1.65-.16A1.35,1.35,0,0,1,191,178a1.39,1.39,0,0,1,1.08-1.38,4.64,4.64,0,0,0,1.34-.49l.12-.08-.19-.13a10.57,10.57,0,0,1-4.21-7.77V168l-.19.1a4.44,4.44,0,0,0-1.09.95,1.39,1.39,0,0,1-1,.47,1.32,1.32,0,0,1-.7-.2,1.39,1.39,0,0,1-.59-1.64,8.89,8.89,0,0,1,3.84-4.76,8.73,8.73,0,0,1,1.79-.78,8.31,8.31,0,0,1-.21-1.84,9,9,0,0,1,2.12-5.78,1.36,1.36,0,0,1,1-.49,1.45,1.45,0,0,1,.67.17,1.39,1.39,0,0,1,.63,1.63,4.79,4.79,0,0,0-.26,1.45,4.65,4.65,0,0,0,.05.66l.29-.13a10.55,10.55,0,0,1,8.32,0l.29.12a4.23,4.23,0,0,0-.21-2.11,1.38,1.38,0,0,1,.62-1.62,1.41,1.41,0,0,1,.68-.18,1.36,1.36,0,0,1,1,.49,9,9,0,0,1,2.11,5.78,8.45,8.45,0,0,1-.21,1.84,8.52,8.52,0,0,1,1.8.78,8.8,8.8,0,0,1,3.83,4.78,1.37,1.37,0,0,1-.59,1.62,1.32,1.32,0,0,1-.7.2h0a1.36,1.36,0,0,1-1-.48,4.92,4.92,0,0,0-1.1-.94l-.19-.11v.16a10.51,10.51,0,0,1-4.2,7.77l-.19.14.12.07a4.16,4.16,0,0,0,1.34.5,1.37,1.37,0,0,1,1.08,1.35,1.36,1.36,0,0,1-1.11,1.35A9,9,0,0,1,205.49,179.44ZM193.32,168a6.27,6.27,0,0,0,2.3,4.3,4.68,4.68,0,0,0-.6-2.58A4.53,4.53,0,0,0,193.32,168Zm12.54,0a4.58,4.58,0,0,0-1.69,1.72,4.64,4.64,0,0,0-.6,2.57A6.24,6.24,0,0,0,205.86,168Zm-6.27-1.78a1.2,1.2,0,1,0,1.2,1.19A1.19,1.19,0,0,0,199.59,166.25Zm-1.89-4.82a4.41,4.41,0,0,0,3.8,0,5.8,5.8,0,0,0-3.8,0Z"/><path class="a" d="M205.14,155a.37.37,0,0,1,.28.13,7.86,7.86,0,0,1,1.42,7.71,7.56,7.56,0,0,1,2.53.91,7.82,7.82,0,0,1,3.39,4.24.39.39,0,0,1-.16.45.37.37,0,0,1-.18.05.37.37,0,0,1-.27-.13,6,6,0,0,0-1.34-1.15,5.39,5.39,0,0,0-2.74-.75,5.49,5.49,0,0,0-4.77,2.81,5.71,5.71,0,0,0,2,7.69,5.39,5.39,0,0,0,1.64.62.36.36,0,0,1,.29.37.38.38,0,0,1-.29.37,8.11,8.11,0,0,1-1.46.14,7.47,7.47,0,0,1-3.82-1.05,7.64,7.64,0,0,1-2.08-1.83,7.45,7.45,0,0,1-5.89,2.88,8.11,8.11,0,0,1-1.46-.14.38.38,0,0,1-.29-.37.37.37,0,0,1,.29-.37,5.49,5.49,0,0,0,1.64-.62,5.71,5.71,0,0,0,2-7.69,5.49,5.49,0,0,0-4.77-2.81,5.39,5.39,0,0,0-2.74.75,6,6,0,0,0-1.34,1.15.37.37,0,0,1-.27.13.37.37,0,0,1-.18-.05.39.39,0,0,1-.16-.45,7.84,7.84,0,0,1,3.4-4.24,7.63,7.63,0,0,1,2.53-.91,7.8,7.8,0,0,1-.46-2.57,8,8,0,0,1,1.88-5.14.34.34,0,0,1,.28-.13.31.31,0,0,1,.18.05.38.38,0,0,1,.17.44,5.5,5.5,0,1,0,10.38,0A.38.38,0,0,1,205,155a.31.31,0,0,1,.18-.05m-5.55,14.66a2.2,2.2,0,1,0-2.19-2.2,2.19,2.19,0,0,0,2.19,2.2m0-11.73a9.4,9.4,0,0,1,3.76.78,4.09,4.09,0,0,1-1.35,1.86,6.82,6.82,0,0,0-4.82,0,4.17,4.17,0,0,1-1.35-1.87,9.43,9.43,0,0,1,3.76-.77m8.48,10a3.85,3.85,0,0,1,1,.14,9.48,9.48,0,0,1-3.8,7,4.17,4.17,0,0,1-1.12-1.95,7.28,7.28,0,0,0,2.69-5,3.87,3.87,0,0,1,1.22-.22m-17,0a3.8,3.8,0,0,1,1.21.21,7.26,7.26,0,0,0,2.69,5,4.13,4.13,0,0,1-1.12,2,9.55,9.55,0,0,1-3.81-7,3.94,3.94,0,0,1,1-.14m14-14.92a2.36,2.36,0,0,0-2.25,3.11c0,.11.07.22.1.33a11.41,11.41,0,0,0-3.39-.51,11.62,11.62,0,0,0-3.38.5,2.34,2.34,0,0,1,.09-.33,2.36,2.36,0,0,0-2.25-3.1,2.35,2.35,0,0,0-1.81.85,10,10,0,0,0-2.35,6.42,9.36,9.36,0,0,0,.08,1.18,9.1,9.1,0,0,0-1.17.58,9.89,9.89,0,0,0-4.28,5.31,2.38,2.38,0,0,0,2.24,3.15,2.35,2.35,0,0,0,1.56-.59,11.49,11.49,0,0,0,3.21,5.8,2.39,2.39,0,0,0-1.59,2.25,2.35,2.35,0,0,0,1.93,2.33,9.21,9.21,0,0,0,1.82.18,9.45,9.45,0,0,0,4.84-1.33,9.1,9.1,0,0,0,1.06-.73,8.31,8.31,0,0,0,1.05.74,9.52,9.52,0,0,0,6.68,1.14,2.35,2.35,0,0,0,1.91-2.28,2.41,2.41,0,0,0-1.59-2.3,11.44,11.44,0,0,0,3.2-5.8,2.42,2.42,0,0,0,1.57.59,2.37,2.37,0,0,0,2.23-3.17,9.72,9.72,0,0,0-4.26-5.29,10.6,10.6,0,0,0-1.17-.58,9.45,9.45,0,0,0,.07-1.18,10,10,0,0,0-2.35-6.43,2.34,2.34,0,0,0-1.8-.84Zm-5.55,14.66a.2.2,0,0,1-.19-.2.19.19,0,0,1,.19-.19.19.19,0,0,1,.2.19.2.2,0,0,1-.2.2Z"/><path class="f" d="M62.08,187.88a5.34,5.34,0,0,1-5.39-5.4V167.83a5.34,5.34,0,0,1,5.39-5.4H77a2.08,2.08,0,0,1,2.18,2.17v15.24a1.91,1.91,0,0,1-.52,1.42,15.92,15.92,0,0,0,0,2.39,2.11,2.11,0,0,1,.5,1.32v.74A2.15,2.15,0,0,1,77,187.88Zm0-5.86a.47.47,0,0,0-.46.46c0,.33.14.47.46.47h12V182Zm7.06-6.4v-2.93h2.94v-.93H69.14v-2.93h-.93v2.93H65.28v.93h2.93v2.93Z"/><path class="a" d="M77,163.43a1.08,1.08,0,0,1,1.18,1.17v15.24a.89.89,0,0,1-.44.88,12.66,12.66,0,0,0,0,3.37,1.3,1.3,0,0,1,.44.88v.74A1.16,1.16,0,0,1,77,186.88h-15a4.32,4.32,0,0,1-4.39-4.4V167.83a4.31,4.31,0,0,1,4.39-4.4H77M64.65,173.69h2.56v2.56a.37.37,0,0,0,.37.37h2.2a.36.36,0,0,0,.36-.37v-2.56h2.57a.38.38,0,0,0,.37-.37v-2.2a.37.37,0,0,0-.37-.36H70.14v-2.57a.36.36,0,0,0-.36-.36h-2.2a.37.37,0,0,0-.37.36v2.57H64.65a.37.37,0,0,0-.37.36v2.2a.38.38,0,0,0,.37.37M62.08,184h13V181h-13a1.46,1.46,0,0,0-1.46,1.46A1.38,1.38,0,0,0,62.08,184m16.13-4.11h0m0,0h0M77,161.43h-15a6.33,6.33,0,0,0-6.39,6.4v14.65a6.33,6.33,0,0,0,6.39,6.4H77a3.14,3.14,0,0,0,3.18-3.17V185a3.07,3.07,0,0,0-.53-1.68c0-.47,0-1.15,0-1.64a3.08,3.08,0,0,0,.54-1.81V164.6A3.07,3.07,0,0,0,77,161.43Z"/><path class="f" d="M21,193.4a1.56,1.56,0,0,1-1.55-1.55v-1.1A1.55,1.55,0,0,1,21,189.2v-1.87a4.63,4.63,0,0,1,1.92-3.77l-2.47-1.1a1.56,1.56,0,0,1-.92-1.41V173.8a2.11,2.11,0,0,1,.52-1.38l-.33-.67a1.8,1.8,0,0,1-.19-.79A1.56,1.56,0,0,1,21,169.41h6.78a9.81,9.81,0,0,1,9.8,9.79v10a1.55,1.55,0,0,1,1.46,1.55v1.1a1.55,1.55,0,0,1-1.55,1.55Z"/><path class="a" d="M27.82,170.41a8.8,8.8,0,0,1,8.8,8.79v10.26H22v-2.13a3.66,3.66,0,0,1,2-3.28l2.62-1.31a2.19,2.19,0,0,0,1.21-2v-2.31l-1,.51a1.09,1.09,0,0,0-.58.71l-.54,2.17a.55.55,0,0,1-.33.38l-1.35.54a.52.52,0,0,1-.21,0,.44.44,0,0,1-.22,0l-2.76-1.22a.56.56,0,0,1-.33-.5V173.8a1.11,1.11,0,0,1,.33-.78l.41-.41-.65-1.3a.73.73,0,0,1-.09-.35.55.55,0,0,1,.55-.55h6.78m-4.94,6.23a.92.92,0,1,0-.92-.92.92.92,0,0,0,.92.92M37.53,190.2a.54.54,0,0,1,.55.55v1.1a.55.55,0,0,1-.55.55H21a.55.55,0,0,1-.55-.55v-1.1a.55.55,0,0,1,.55-.55H37.53m-9.71-21.79H21A2.55,2.55,0,0,0,18.49,171a2.8,2.8,0,0,0,.3,1.24l.07.14a3,3,0,0,0-.37,1.46v7.25A2.57,2.57,0,0,0,20,183.38l1.12.49A5.64,5.64,0,0,0,20,187.33v1.11a2.55,2.55,0,0,0-1.47,2.31v1.1A2.56,2.56,0,0,0,21,194.4H37.53a2.55,2.55,0,0,0,2.55-2.55v-1.1a2.56,2.56,0,0,0-1.46-2.31V179.2a10.81,10.81,0,0,0-10.8-10.79Z"/><path class="f" d="M188.8,37.86a1.71,1.71,0,0,1-.85-.22,1.75,1.75,0,0,1-.65-2.37L189,32.34a1.66,1.66,0,0,1,.25-.34h-1.9a1.75,1.75,0,0,1,.26,2L185.91,37a1.74,1.74,0,0,1-1.5.87,1.68,1.68,0,0,1-.85-.22,1.76,1.76,0,0,1-.83-1.06,1.72,1.72,0,0,1,.17-1.31l1.68-2.93a1.66,1.66,0,0,1,.25-.34h-1.9a1.75,1.75,0,0,1,.27,2L181.51,37a1.73,1.73,0,0,1-3-1.72l1.68-2.93a2.13,2.13,0,0,1,.25-.34h-1.89a1.75,1.75,0,0,1,.26,2L177.12,37a1.74,1.74,0,0,1-1.51.87,1.71,1.71,0,0,1-.85-.22,1.73,1.73,0,0,1-.65-2.37l1.67-2.93a1.61,1.61,0,0,1,.55-.58,4.67,4.67,0,0,1-.21-8.77,5.38,5.38,0,0,1,9.22-3.07,4.53,4.53,0,0,1,1.27-.18,4.29,4.29,0,0,1,1.07.13v-.19a7.59,7.59,0,0,1,7.61-7.27,7.12,7.12,0,0,1,1.39.13,1.28,1.28,0,0,1,1.06,1.06A1.33,1.33,0,0,1,197.1,15,4.16,4.16,0,0,0,195,18.59a4.09,4.09,0,0,0,1.24,2.95,4.15,4.15,0,0,0,2.95,1.22,4.26,4.26,0,0,0,.8-.08l.09,0h.16a1.31,1.31,0,0,1,1.19.77,1.29,1.29,0,0,1-.21,1.39,7.61,7.61,0,0,1-5.91,2.78,3.92,3.92,0,0,1-.59-.05l-.5-.05a4.69,4.69,0,0,1-2.92,4.16l.05,0a1.75,1.75,0,0,1,.66,2.36L190.31,37A1.74,1.74,0,0,1,188.8,37.86Z"/><path class="a" d="M195.3,13.41a7,7,0,0,1,1.21.11.31.31,0,0,1,.1.57,5.17,5.17,0,0,0,2.56,9.67,4.82,4.82,0,0,0,1-.1h.06a.3.3,0,0,1,.23.5,6.65,6.65,0,0,1-5.16,2.44c-.23,0-.46-.05-.69-.07a5.14,5.14,0,0,0-3.22-4,5.08,5.08,0,0,0-2.7-2.82,6.62,6.62,0,0,1,6.62-6.32m-13.82,5.86A4.35,4.35,0,0,1,185,21.11a3.63,3.63,0,0,1,5.17,2.63,3.66,3.66,0,0,1-.66,7.26H177.81a3.67,3.67,0,0,1-.72-7.26s0,0,0-.07a4.4,4.4,0,0,1,4.4-4.4m9,13.2a.77.77,0,0,1,.36.09.75.75,0,0,1,.28,1l-1.68,2.93a.73.73,0,0,1-.64.37.8.8,0,0,1-.36-.09.73.73,0,0,1-.27-1l1.67-2.93a.74.74,0,0,1,.64-.37m-4.4,0a.81.81,0,0,1,.37.09.73.73,0,0,1,.27,1L185,36.49a.71.71,0,0,1-.63.37.74.74,0,0,1-.36-.09.73.73,0,0,1-.28-1l1.68-2.93a.71.71,0,0,1,.63-.37m-4.39,0a.8.8,0,0,1,.36.09.73.73,0,0,1,.27,1l-1.67,2.93a.74.74,0,0,1-.64.37.77.77,0,0,1-.36-.09.74.74,0,0,1-.28-1l1.68-2.93a.72.72,0,0,1,.64-.37m-4.4,0a.77.77,0,0,1,.36.09.75.75,0,0,1,.28,1l-1.68,2.93a.74.74,0,0,1-.64.37.8.8,0,0,1-.36-.09.73.73,0,0,1-.27-1l1.67-2.93a.73.73,0,0,1,.64-.37m18-21.06a8.6,8.6,0,0,0-8.53,7.33h-.16a5.23,5.23,0,0,0-1,.09,6.38,6.38,0,0,0-10.41,3.47,5.66,5.66,0,0,0-.47,9.81l-1.52,2.67a2.72,2.72,0,0,0,1,3.72,2.73,2.73,0,0,0,3.55-.75,2.56,2.56,0,0,0,.85.75,2.7,2.7,0,0,0,1.35.36,2.76,2.76,0,0,0,2.2-1.11,2.63,2.63,0,0,0,.84.75,2.77,2.77,0,0,0,1.36.36,2.73,2.73,0,0,0,2.19-1.11,2.66,2.66,0,0,0,.85.75,2.76,2.76,0,0,0,1.35.36,2.73,2.73,0,0,0,2.37-1.37l1.68-2.94a2.74,2.74,0,0,0,0-2.65,5.68,5.68,0,0,0,2.18-3.31h.23a8.63,8.63,0,0,0,6.7-3.16,2.3,2.3,0,0,0-1.77-3.78,2.12,2.12,0,0,0-.44,0,3.15,3.15,0,0,1-.61.06A3.19,3.19,0,0,1,196,18.59a3.14,3.14,0,0,1,1.61-2.75,2.31,2.31,0,0,0-.73-4.29,8.87,8.87,0,0,0-1.56-.14Z"/><path class="f" d="M229.84,140.54a4.66,4.66,0,0,1-2.09-8.83v-7.79a4.67,4.67,0,1,1,4.19,0v4.52a19.46,19.46,0,0,1,2.64-.37c1.3-.12,2.77-.25,3.21-.81a1.17,1.17,0,0,0,.2-.42,4.66,4.66,0,1,1,4.25,0,5.7,5.7,0,0,1-1.17,3.07c-1.56,1.93-4.08,2.17-6.1,2.35-.71.07-1.38.13-1.92.24a4.66,4.66,0,0,1-3.21,8Z"/><path class="a" d="M229.84,116.09a3.66,3.66,0,0,1,1.1,7.16v6.59a11.07,11.07,0,0,1,3.73-.77c1.64-.15,3.19-.3,3.9-1.18a2.76,2.76,0,0,0,.5-1.69,3.66,3.66,0,1,1,4.7-3.52h0a3.7,3.7,0,0,1-2.49,3.48,5,5,0,0,1-1,3.11c-1.29,1.6-3.48,1.81-5.42,2a9.36,9.36,0,0,0-3,.58,1.69,1.69,0,0,0-.69.62,3.66,3.66,0,1,1-5,3.41,3.68,3.68,0,0,1,2.57-3.5v-9.12a3.66,3.66,0,0,1,1.09-7.16m0,4.39a.73.73,0,1,0-.73-.73.74.74,0,0,0,.73.73m10.26,2.94a.74.74,0,1,0-.73-.74.74.74,0,0,0,.73.74m-10.26,13.19a.74.74,0,1,0-.73-.74.74.74,0,0,0,.73.74m0-22.52a5.67,5.67,0,0,0-3.09,10.41v6.63a5.67,5.67,0,1,0,8.12,2.14l.16,0c2.12-.19,5-.46,6.82-2.73a6.47,6.47,0,0,0,1.32-3.07,5.66,5.66,0,1,0-7.67-8.06,5.67,5.67,0,0,0-5.66-5.3Zm3.1,10.41a5.49,5.49,0,0,0,1.51-1.45,5.73,5.73,0,0,0,1.83,3.81c-.55.1-1.28.17-1.8.22s-1,.09-1.54.16V124.5Z"/><path class="f" d="M56.91,158.45A1.74,1.74,0,0,1,55.2,157H42.55a1.74,1.74,0,0,1-1.72,1.47H39.35a1.74,1.74,0,0,1-1.72-1.93,16.15,16.15,0,0,1,6.59-10.79,16.12,16.12,0,0,1-6.59-10.78,1.76,1.76,0,0,1,.43-1.36,1.74,1.74,0,0,1,1.3-.58h1.47a1.74,1.74,0,0,1,1.73,1.46H55.21A1.74,1.74,0,0,1,56.92,133h1.49a1.74,1.74,0,0,1,1.72,1.93c-.31,2.55-1.91,8.91-10.14,13-.3.15-.59.3-.87.46h.39l1-.54a23.94,23.94,0,0,0,2.57-1.55l.63-.45.59.5a16,16,0,0,1,5.79,10.16,1.72,1.72,0,0,1-1.72,1.93Z"/><path class="a" d="M40.85,134a.73.73,0,0,1,.72.63,7.38,7.38,0,0,0,.16.83H56c.07-.32.12-.6.15-.83a.73.73,0,0,1,.73-.63h1.49a.73.73,0,0,1,.73.82c-.27,2.19-1.72,8.3-9.6,12.21a17.81,17.81,0,0,0-3.6,2.36h5.84c-.26-.22-.49-.44-.78-.65a24.07,24.07,0,0,0,2.68-1.63,15,15,0,0,1,5.45,9.52.73.73,0,0,1-.73.81H56.91a.73.73,0,0,1-.72-.64c0-.22-.09-.51-.16-.83H41.72c-.07.32-.12.61-.15.83a.74.74,0,0,1-.74.64H39.35a.72.72,0,0,1-.72-.81c.23-2,1.43-7,7.32-10.91-5.89-3.86-7.09-8.94-7.32-10.9a.73.73,0,0,1,.73-.82h1.49m3,5.86H53.92a12.8,12.8,0,0,0,1-1.47h-12a11.48,11.48,0,0,0,1,1.47m5,4.19a16.91,16.91,0,0,0,2.94-2H45.94a17.3,17.3,0,0,0,2.94,2m-6,9h12a12.8,12.8,0,0,0-1-1.47h-10a11.48,11.48,0,0,0-1,1.47m-2-21.05h-1.5a2.73,2.73,0,0,0-2.71,3.05,17,17,0,0,0,6,10.67,17,17,0,0,0-6,10.67,2.77,2.77,0,0,0,.67,2.14,2.74,2.74,0,0,0,2,.91h1.48A2.76,2.76,0,0,0,43.26,158H54.5a2.74,2.74,0,0,0,2.41,1.47h1.5a2.72,2.72,0,0,0,2.7-3.06,17,17,0,0,0-6-10.64,16.86,16.86,0,0,0,6-10.68A2.74,2.74,0,0,0,58.41,132H56.93a2.76,2.76,0,0,0-2.43,1.46H43.26A2.74,2.74,0,0,0,40.85,132Z"/><path class="f" d="M25.33,127.2a15.65,15.65,0,0,1-13.92-8.67,2.51,2.51,0,0,1,0-2.25,15.52,15.52,0,0,1,27.85,0,2.46,2.46,0,0,1,0,2.24A15.64,15.64,0,0,1,25.33,127.2Zm0-15.39a5.6,5.6,0,1,0,4,9.55,5.54,5.54,0,0,0,1.63-4A5.6,5.6,0,0,0,25.33,111.81Zm0,11a5.21,5.21,0,0,1-1.41-.19A5.4,5.4,0,0,1,20.14,116l.38-1.41,1.18.87a1.17,1.17,0,0,0,.7.23,1.2,1.2,0,0,0,.71-.23,1.19,1.19,0,0,0,.25-1.67l-.85-1.15,1.38-.4a5.26,5.26,0,0,1,1.43-.21h0a5.6,5.6,0,0,1,1.43.18,5.39,5.39,0,0,1-1.41,10.59Z"/><path class="a" d="M25.33,108.61a14.68,14.68,0,0,1,13,8.13,1.48,1.48,0,0,1,0,1.33,14.51,14.51,0,0,1-26.06,0,1.42,1.42,0,0,1,0-1.33,14.68,14.68,0,0,1,13-8.13m0,15.39h0a6.6,6.6,0,1,0-6.61-6.6,6.58,6.58,0,0,0,6.61,6.6m0-11a4.48,4.48,0,0,1,1.15.15,4.39,4.39,0,0,1-1.15,8.62,4.54,4.54,0,0,1-1.15-.15,4.38,4.38,0,0,1-3.08-5.38,2.19,2.19,0,0,0,3.06-3.07,4.17,4.17,0,0,1,1.16-.17h0m0-6.4a16.65,16.65,0,0,0-14.81,9.21,3.49,3.49,0,0,0,0,3.16,16.51,16.51,0,0,0,29.63,0,3.53,3.53,0,0,0,0-3.15,16.68,16.68,0,0,0-14.82-9.22Zm-3.43,7.74a4.31,4.31,0,0,1,.37-.37l.29.39a.17.17,0,0,1,0,.14.15.15,0,0,1-.07.12.17.17,0,0,1-.12,0,.15.15,0,0,1-.11,0l-.39-.28Z"/><path class="f" d="M175,169.88a1.72,1.72,0,0,1-1.23-.51l-1.71-1.91-1.66,1.87a1.75,1.75,0,0,1-1.27.55,1.69,1.69,0,0,1-1.22-.51l-1.85-2.07-.9.67a1.68,1.68,0,0,1-1.15.45,1.74,1.74,0,0,1-1.74-1.74V154.59a10.07,10.07,0,0,1,9.49-10.16h.3a9.81,9.81,0,0,1,9.8,9.79v12.46a1.73,1.73,0,0,1-.55,1.27,1.75,1.75,0,0,1-1.19.47h0A1.72,1.72,0,0,1,179,168l-.89-.67-1.81,2A1.75,1.75,0,0,1,175,169.88Zm0-16.12a.47.47,0,1,0,.46.46A.47.47,0,0,0,175,153.76Zm-5.87,0a.47.47,0,1,0,.47.46A.47.47,0,0,0,169.15,153.76Z"/><path class="a" d="M172.08,145.43a8.8,8.8,0,0,1,8.8,8.79v12.46a.74.74,0,0,1-.74.74.71.71,0,0,1-.51-.22l-1.14-.85a.72.72,0,0,0-.44-.14.74.74,0,0,0-.55.24l-2,2.22a.74.74,0,0,1-1,0l-1.87-2.1a.72.72,0,0,0-1.09,0l-1.87,2.1a.73.73,0,0,1-.52.21.77.77,0,0,1-.52-.21l-2-2.22a.75.75,0,0,0-.55-.24.72.72,0,0,0-.44.14l-1.14.85a.71.71,0,0,1-.51.22.74.74,0,0,1-.74-.74V154.59a9,9,0,0,1,8.52-9.16h.27M175,155.69a1.47,1.47,0,1,0-1.47-1.47,1.47,1.47,0,0,0,1.47,1.47m-5.87,0a1.47,1.47,0,1,0,0-2.93,1.47,1.47,0,0,0,0,2.93m2.93-12.26h-.33a11.05,11.05,0,0,0-10.46,11.15v12.09a2.74,2.74,0,0,0,2.74,2.74,2.7,2.7,0,0,0,1.79-.68l.12-.09,1.2,1.34,0,0,0,0a2.74,2.74,0,0,0,3.87,0l0,0,0,0,.91-1,.92,1,0,0,0,0a2.74,2.74,0,0,0,3.87,0l0,0,0,0,1.19-1.34.13.09a2.7,2.7,0,0,0,1.79.68,2.74,2.74,0,0,0,2.74-2.74V154.22a10.8,10.8,0,0,0-10.8-10.79Z"/><path class="f" d="M177.08,69.88a3,3,0,0,1-1.11.22,2.77,2.77,0,0,1-1.1-.22l.39.54-2.81-.84a12.31,12.31,0,0,1-7.88-7L164,61.14h.1l-.05-.21a12,12,0,0,1,0-6.38l.05-.21H164l.58-1.38a12.31,12.31,0,0,1,7.87-7.06l2.81-.83-.39.54a2.87,2.87,0,0,1,1.11-.23,3,3,0,0,1,1.1.22l-.39-.53,2.81.83A12.35,12.35,0,0,1,187.37,53l.58,1.38h-.1l.05.22a12.29,12.29,0,0,1,0,6.37l-.06.21H188l-.58,1.39a12.3,12.3,0,0,1-7.87,7l-2.82.84Z"/><path class="a" d="M176,46.38c1.82,0,3.39,2.87,4.05,7h-8.1c.66-4.09,2.23-7,4.05-7m3.24.48a11.37,11.37,0,0,1,7.23,6.48H181.5a15.68,15.68,0,0,0-2.29-6.48m-6.48,0a15.4,15.4,0,0,0-2.29,6.48h-4.95a11.39,11.39,0,0,1,7.24-6.48m14.2,8a11.2,11.2,0,0,1,0,5.86h-5.25a28.69,28.69,0,0,0,0-5.86h5.25m-6.72,0a28.69,28.69,0,0,1,0,5.86h-8.49c-.09-.94-.15-1.91-.15-2.93s.06-2,.15-2.93h8.49m-10,0a28.46,28.46,0,0,0-.15,2.93c0,1,0,2,.14,2.93H165a11.2,11.2,0,0,1,0-5.86h5.26m16.19,7.33a11.39,11.39,0,0,1-7.24,6.48,15.35,15.35,0,0,0,2.29-6.48h4.95m-6.43,0c-.66,4.09-2.23,7-4.05,7s-3.39-2.87-4.05-7H180m-9.58,0a15.35,15.35,0,0,0,2.29,6.48,11.39,11.39,0,0,1-7.24-6.48h4.95m7.34-18.87-1.82.54-1.81-.54.64.89-2.63.78a13.3,13.3,0,0,0-8.51,7.63l-.1.24h-.09l-.14.55-.83,2h.35a12.64,12.64,0,0,0,0,4.8h-.36l.84,2,.14.54h.09l.1.25a13.31,13.31,0,0,0,8.51,7.62l2.64.78-.64.89,1.81-.54,1.81.54-.63-.89,2.63-.78a13.31,13.31,0,0,0,8.51-7.62l.1-.25h.07l.13-.45.87-2.08h-.36a13,13,0,0,0,.22-2.4,13.15,13.15,0,0,0-.22-2.4h.36l-.84-2-.14-.55h-.09l-.1-.24a13.32,13.32,0,0,0-8.51-7.63l-2.64-.78.64-.89Z"/><path class="f" d="M222.08,80.45a1.56,1.56,0,0,1-1.19-.55,1.58,1.58,0,0,1-.33-1.27l.46-2.57h-2.49L218,79.18a1.54,1.54,0,0,1-1.52,1.27h-1.86a1.56,1.56,0,0,1-1.19-.55,1.54,1.54,0,0,1-.34-1.27l.46-2.57h-2.23a1.56,1.56,0,0,1-1.53-1.83l.33-1.83a1.55,1.55,0,0,1,1.53-1.28h2.78l.69-3.86h-2.23a1.56,1.56,0,0,1-1.19-.55,1.58,1.58,0,0,1-.34-1.27l.33-1.83a1.55,1.55,0,0,1,1.53-1.28H216l.56-3.12a1.55,1.55,0,0,1,1.53-1.28h1.86a1.5,1.5,0,0,1,1.18.56,1.52,1.52,0,0,1,.34,1.26L221,62.33h2.49l.56-3.12a1.54,1.54,0,0,1,1.52-1.28h1.86a1.55,1.55,0,0,1,1.19.56,1.53,1.53,0,0,1,.34,1.27l-.46,2.57h2.23a1.56,1.56,0,0,1,1.53,1.82L231.91,66a1.55,1.55,0,0,1-1.53,1.28H227.6l-.69,3.86h2.23A1.56,1.56,0,0,1,230.67,73l-.33,1.83a1.55,1.55,0,0,1-1.53,1.28H226l-.56,3.12a1.54,1.54,0,0,1-1.53,1.27Zm-.18-9.33.69-3.86H220.1l-.69,3.86Z"/><path class="a" d="M227.41,58.93a.55.55,0,0,1,.54.65l-.67,3.75h3.43a.55.55,0,0,1,.54.65l-.33,1.83a.54.54,0,0,1-.54.45h-3.62l-1,5.86h3.43a.55.55,0,0,1,.54.65l-.33,1.83a.55.55,0,0,1-.54.46h-3.62l-.7,3.94a.56.56,0,0,1-.55.45h-1.86a.55.55,0,0,1-.54-.64l.67-3.75h-4.52L217,79a.56.56,0,0,1-.54.45h-1.86a.55.55,0,0,1-.54-.64l.67-3.75h-3.43a.55.55,0,0,1-.54-.65l.33-1.83a.54.54,0,0,1,.54-.46h3.62l1-5.86h-3.43a.55.55,0,0,1-.54-.65l.33-1.83a.54.54,0,0,1,.54-.45h3.62l.7-3.94a.56.56,0,0,1,.55-.46h1.86a.55.55,0,0,1,.54.65l-.67,3.75h4.52l.7-3.94a.55.55,0,0,1,.54-.46h1.86m-9.19,13.19h4.52l1-5.86h-4.52l-1,5.86m9.19-15.19h-1.86A2.55,2.55,0,0,0,223,59l-.41,2.3h-.45l.25-1.4a2.57,2.57,0,0,0-2.51-3h-1.86a2.54,2.54,0,0,0-2.51,2.1l-.41,2.3h-1.95a2.54,2.54,0,0,0-2.51,2.1l-.33,1.83a2.55,2.55,0,0,0,.56,2.09,2.52,2.52,0,0,0,2,.91h1l-.33,1.86h-1.95a2.54,2.54,0,0,0-2.51,2.11l-.33,1.83a2.55,2.55,0,0,0,2.51,3h1l-.25,1.39a2.54,2.54,0,0,0,2.51,3h1.86a2.54,2.54,0,0,0,2.51-2.1l.41-2.29h.45l-.25,1.39a2.55,2.55,0,0,0,2.51,3h1.86a2.54,2.54,0,0,0,2.51-2.1l.41-2.29h1.95A2.55,2.55,0,0,0,231.32,75l.33-1.83a2.57,2.57,0,0,0-2.51-3h-1l.33-1.86h1.95a2.54,2.54,0,0,0,2.51-2.1l.33-1.83a2.55,2.55,0,0,0-.56-2.09,2.52,2.52,0,0,0-1.95-.91h-1l.25-1.4a2.53,2.53,0,0,0-.55-2.08,2.56,2.56,0,0,0-2-.92Zm-6.47,11.33h.45l-.33,1.86h-.45l.33-1.86Z"/><path class="f" d="M12.64,243.27c-3,0-5.39-1.73-5.39-3.93s2.37-3.94,5.39-3.94l.47,0V224.61a2.45,2.45,0,0,1,1.72-2.35l14.68-4.33a2.13,2.13,0,0,1,.72-.11,2.47,2.47,0,0,1,2.47,2.46V236.4c0,2.21-2.37,3.94-5.4,3.94s-5.4-1.73-5.4-3.94,2.37-3.93,5.4-3.93l.47,0v-6L18,229.38v10C18,241.54,15.67,243.27,12.64,243.27Z"/><path class="a" d="M30.23,218.82a1.46,1.46,0,0,1,1.47,1.46V236.4c0,1.62-2,2.94-4.4,2.94s-4.4-1.32-4.4-2.94,2-2.93,4.4-2.93a6.3,6.3,0,0,1,1.47.18V225.2L17,228.63v10.71c0,1.62-2,2.93-4.4,2.93S8.25,241,8.25,239.34s2-2.94,4.39-2.94a6.88,6.88,0,0,1,1.47.18v-12a1.48,1.48,0,0,1,1-1.4l14.65-4.33a1.72,1.72,0,0,1,.44-.06m0-2a3.37,3.37,0,0,0-1,.16L14.57,221.3a3.44,3.44,0,0,0-2.46,3.31v9.81c-3.33.2-5.86,2.29-5.86,4.92s2.81,4.93,6.39,4.93,6.4-2.17,6.4-4.93v-9.21l7.73-2.26v3.62c-3.33.2-5.87,2.29-5.87,4.91s2.81,4.94,6.4,4.94,6.4-2.17,6.4-4.94V220.28a3.47,3.47,0,0,0-3.47-3.46Z"/><path class="f" d="M233.26,29.19a4.91,4.91,0,0,1-.88-.07,10.1,10.1,0,0,1-4.87-3l-1.27.13a4.27,4.27,0,0,1-.56.05c-3.56,0-9.61-3.15-10.35-7.34l-1.45-8.22a4,4,0,0,1,2-4.23,21.85,21.85,0,0,1,10.57-2.74,22.37,22.37,0,0,1,3.45.27,3.94,3.94,0,0,1,2.56,1.64l.73,1a21.77,21.77,0,0,1,9.93,2.73,4,4,0,0,1,2,4.23l-1.45,8.23c-.74,4.18-6.79,7.33-10.35,7.33Zm-2.36-8a3.94,3.94,0,0,0,2.59,1.64,4.34,4.34,0,0,0,.71.06,4,4,0,0,0,2.28-.71,10.37,10.37,0,0,1-1.12.06,10.11,10.11,0,0,1-1.73-.15A9.63,9.63,0,0,1,230.9,21.19Zm-8.62-1a9.63,9.63,0,0,0,2.19,1,6.51,6.51,0,0,1-.21-2.25A4.41,4.41,0,0,0,222.4,20Zm-2.09-2.08a1.79,1.79,0,0,0,.47.79A4.44,4.44,0,0,1,224,15l1-.29.79-4.48a4.18,4.18,0,0,1,.63-1.57,16.7,16.7,0,0,0-7.56,1.8l.24,1.34.17-1.32,1.27.66a1.77,1.77,0,0,0,.79.17l.38,0a1.89,1.89,0,0,0,1.06-.54l1-1,.65,1.26a3,3,0,0,1,.29.81,2.84,2.84,0,0,1-5.25,1.9Z"/><path class="a" d="M226.42,4.74a21.55,21.55,0,0,1,3.29.26,3,3,0,0,1,1.91,1.24,21.08,21.08,0,0,0-2.62.24,4.4,4.4,0,0,0-2.36,1.19h-.22a17.89,17.89,0,0,0-8.66,2.25.23.23,0,0,0,0,.12l1.45,8.22c.27,1.52,3,3.29,5.13,3.88a12,12,0,0,0,1.81,3.1,3.42,3.42,0,0,1-.46,0c-3.12,0-8.71-2.82-9.36-6.51l-1.46-8.22a3,3,0,0,1,1.47-3.19,20.84,20.84,0,0,1,10.09-2.61m6.1,2.92a20.71,20.71,0,0,1,10.09,2.62,3,3,0,0,1,1.47,3.18l-1.45,8.22c-.66,3.69-6.25,6.51-9.37,6.51a3.8,3.8,0,0,1-.7-.06c-2.89-.5-8-5.51-7.25-9.49l1.45-8.23a3,3,0,0,1,2.47-2.49,21.55,21.55,0,0,1,3.29-.26m-2.43,7.6a2.74,2.74,0,0,1,1.25-.28,2.71,2.71,0,0,1,.56,0,2.84,2.84,0,0,1,1.61.84,1.6,1.6,0,0,0,.19-.53,1.82,1.82,0,0,0-1.49-2.11,1.66,1.66,0,0,0-.32,0,1.83,1.83,0,0,0-1.8,1.51,1.69,1.69,0,0,0,0,.55m5.77,1a2.81,2.81,0,0,1,1.25-.29,3.64,3.64,0,0,1,.56,0,2.91,2.91,0,0,1,1.62.84,1.78,1.78,0,0,0,.18-.52A1.83,1.83,0,0,0,238,14.24l-.32,0a1.83,1.83,0,0,0-1.8,1.52,1.69,1.69,0,0,0,0,.55m-1.65,7.61a4.87,4.87,0,0,0,4.72-3.54,7.07,7.07,0,0,1-3.57.89,9.29,9.29,0,0,1-1.56-.13,7.59,7.59,0,0,1-4.56-2.47,4.88,4.88,0,0,0,4.08,5.17,4.47,4.47,0,0,0,.89.08M223.48,11.43a1.63,1.63,0,0,1,.19.52,1.82,1.82,0,0,1-1.49,2.12,1.66,1.66,0,0,1-.32,0,1.83,1.83,0,0,1-1.8-1.51,1.75,1.75,0,0,1,0-.56,2.62,2.62,0,0,0,1.25.29,3.64,3.64,0,0,0,.56-.05,2.84,2.84,0,0,0,1.61-.84m.81,4.54-.35,2a5.61,5.61,0,0,0-2.29,1.42A3.43,3.43,0,0,1,224.29,16m2.13-13.23A22.89,22.89,0,0,0,215.36,5.6a5,5,0,0,0-2.47,5.28l1.46,8.23c.83,4.73,7.35,8.16,11.33,8.16a5.47,5.47,0,0,0,.59,0h.08l.79-.08a10.57,10.57,0,0,0,5.07,3,5.87,5.87,0,0,0,1,.09c4,0,10.5-3.43,11.34-8.16l1.45-8.22a5,5,0,0,0-2.47-5.28,22.81,22.81,0,0,0-9.89-2.84l-.44-.62A5,5,0,0,0,230,3a22.89,22.89,0,0,0-3.6-.28Zm-1.56,7Z"/><path class="f" d="M94,175.06a9.12,9.12,0,0,1-9.06-9.15c0-3,1.44-5,3-7.23a24.06,24.06,0,0,0,3.8-7.34,2.37,2.37,0,0,1,2.3-1.73,2.35,2.35,0,0,1,2.3,1.75,23.88,23.88,0,0,0,3.81,7.33c1.52,2.16,3,4.21,3,7.22A9.11,9.11,0,0,1,94,175.06Z"/><path class="a" d="M94,150.61a1.37,1.37,0,0,1,1.34,1c2.15,7.26,6.72,9.17,6.72,14.29a8.06,8.06,0,1,1-16.12,0c0-5.1,4.58-7.06,6.72-14.29a1.37,1.37,0,0,1,1.34-1m0,20.52a.73.73,0,1,0,0-1.46A3.67,3.67,0,0,1,90.32,166a.74.74,0,0,0-1.47,0A5.13,5.13,0,0,0,94,171.13m0-22.52a3.37,3.37,0,0,0-3.25,2.44,23,23,0,0,1-3.67,7.06c-1.62,2.31-3.14,4.49-3.14,7.8a10.06,10.06,0,1,0,20.12,0c0-3.32-1.52-5.5-3.13-7.8a22.7,22.7,0,0,1-3.67-7.06A3.35,3.35,0,0,0,94,148.61Z"/><path class="f" d="M200.88,112a1.74,1.74,0,0,1-1.55-2.51l1.18-1.89h-5.16a2,2,0,0,1-1.55-3.38l2.3-2.6a2,2,0,0,1-.86-3.23l2.28-2.65a2,2,0,0,1-.75-3.27l5-5.39a1.73,1.73,0,0,1,1.26-.53,1.71,1.71,0,0,1,1.27.54l5.05,5.38a2,2,0,0,1-.76,3.27l2.28,2.65a2,2,0,0,1-.85,3.23l2.3,2.6a2,2,0,0,1-1.55,3.38h-5.17l1.13,1.81a1.75,1.75,0,0,1,0,1.77,1.71,1.71,0,0,1-1.47.82Z"/><path class="a" d="M203.08,87.51a.73.73,0,0,1,.54.22l5,5.38a1,1,0,0,1,.19,1.1,1,1,0,0,1-1,.63h-1.33L210.16,99a1,1,0,0,1,.15,1.1,1,1,0,0,1-.95.6H208l3.66,4.14a1,1,0,0,1,.16,1.12,1.07,1.07,0,0,1-1,.6h-6.27v1.12l1.39,2.22a.74.74,0,0,1-.66,1.06h-4.39a.73.73,0,0,1-.66-1.06l1.39-2.22v-1.12h-6.27a1.07,1.07,0,0,1-1-.6,1,1,0,0,1,.16-1.12l3.66-4.14h-1.4a1.05,1.05,0,0,1-1-.6A1,1,0,0,1,196,99l3.58-4.16h-1.32a1.05,1.05,0,0,1-1-.63,1,1,0,0,1,.2-1.1l5.05-5.38a.71.71,0,0,1,.53-.22m0-2a2.74,2.74,0,0,0-2,.85L196,91.74a3,3,0,0,0-.57,3.27,3,3,0,0,0,.57.87l-1.55,1.82A3,3,0,0,0,194,101a3.4,3.4,0,0,0,.56.82l-1.55,1.75a3,3,0,0,0-.48,3.28,3.07,3.07,0,0,0,2.78,1.76h3.36l-.18.28-.05.08,0,.08a2.74,2.74,0,0,0,2.45,4h4.39a2.74,2.74,0,0,0,2.44-4l0-.08-.05-.08-.17-.28h3.36a3.07,3.07,0,0,0,2.77-1.76,3,3,0,0,0-.47-3.28l-1.55-1.75a3.1,3.1,0,0,0,.55-.82,3,3,0,0,0-.44-3.25l-1.56-1.82a2.81,2.81,0,0,0,.58-.88,3,3,0,0,0-.58-3.26l-5.05-5.38a2.72,2.72,0,0,0-2-.85Z"/><polygon class="f" points="92.01 139.75 92.01 102.09 124.63 83.26 157.24 102.09 157.24 139.75 124.63 158.59 92.01 139.75"/><path class="a" d="M124.63,84.41l31.61,18.26v36.51l-31.61,18.25L93,139.18V102.67l31.62-18.26m0-2.3-1,.57L92,100.94l-1,.57v38.82l1,.58,31.62,18.25,1,.58,1-.58,31.61-18.25,1-.58V101.51l-1-.57L125.63,82.68l-1-.57Z"/><text class="d" transform="translate(102.4 129.36)">U<tspan class="e" x="15.64" y="0">T</tspan><tspan x="29.53" y="0">C</tspan></text></svg>