<svg xmlns="http://www.w3.org/2000/svg" viewBox="0 0 500 500"><defs><style>.a{fill:#071013;}.b{fill:none;stroke:#fff;stroke-miterlimit:10;stroke-width:2px;}.c,.d{fill:#fdfe00;}.d{font-size:24.82px;font-family:Roboto-Light, Roboto;font-weight:300;}.e{letter-spacing:-0.01em;}.f{letter-spacing:-0.01em;}.g{letter-spacing:0em;}</style></defs><title>patreon</title><rect class="a" width="500" height="500"/><path class="b" d="M177,233C71,229,78,69,78,69"/><path class="b" d="M177,235c-52-29-55-149-55-149"/><path class="b" d="M158,35s-22.58,127,15.71,198"/><path class="b" d="M406,97s85,110-226,138"/><path class="b" d="M429,72S411.76,251,174.88,237"/><path class="b" d="M330,86S318,208,180,229"/><path class="b" d="M388,42S364.55,206,182.27,235"/><path class="b" d="M296,49s-5,145-116,184"/><path class="b" d="M177,237.13C232,220.25,250,109,250,109"/><path class="b" d="M190,72s-40.45,111.39-7.73,157.2"/><path class="b" d="M298,109s0,199-118,136"/><path class="b" d="M108,139c-8,16-22,119,66,102"/><path class="b" d="M176.62,219.08S199,207,204,166"/><path class="b" d="M175,253c-1.16,43.28-97-1-96,63"/><path class="b" d="M350,316c5-110-176.58,29.38-161.68-70.41"/><path class="b" d="M177,243c9,15,105,41,100,112"/><path class="b" d="M184.24,247.17C186,269,201,365,302,314s118,13,117,45"/><path class="b" d="M361,158c14,19,35,130-181,87"/><circle class="c" cx="78" cy="69" r="9"/><path class="a" d="M78,62a7,7,0,1,1-7,7,7,7,0,0,1,7-7m0-4A11,11,0,1,0,89,69,11,11,0,0,0,78,58Z"/><circle class="c" cx="122" cy="86" r="9"/><path class="a" d="M122,79a7,7,0,1,1-7,7,7,7,0,0,1,7-7m0-4a11,11,0,1,0,11,11,11,11,0,0,0-11-11Z"/><circle class="c" cx="108" cy="139" r="9"/><path class="a" d="M108,132a7,7,0,1,1-7,7,7,7,0,0,1,7-7m0-4a11,11,0,1,0,11,11,11,11,0,0,0-11-11Z"/><circle class="c" cx="158" cy="35" r="9"/><path class="a" d="M158,28a7,7,0,1,1-7,7,7,7,0,0,1,7-7m0-4a11,11,0,1,0,11,11,11,11,0,0,0-11-11Z"/><circle class="c" cx="193" cy="72" r="9"/><path class="a" d="M193,65a7,7,0,1,1-7,7,7,7,0,0,1,7-7m0-4a11,11,0,1,0,11,11,11,11,0,0,0-11-11Z"/><circle class="c" cx="250" cy="111" r="9"/><path class="a" d="M250,104a7,7,0,1,1-7,7,7,7,0,0,1,7-7m0-4a11,11,0,1,0,11,11,11,11,0,0,0-11-11Z"/><circle class="c" cx="296" cy="49" r="9"/><path class="a" d="M296,42a7,7,0,1,1-7,7,7,7,0,0,1,7-7m0-4a11,11,0,1,0,11,11,11,11,0,0,0-11-11Z"/><circle class="c" cx="330" cy="86" r="9"/><path class="a" d="M330,79a7,7,0,1,1-7,7,7,7,0,0,1,7-7m0-4a11,11,0,1,0,11,11,11,11,0,0,0-11-11Z"/><circle class="c" cx="298" cy="109" r="9"/><path class="a" d="M298,102a7,7,0,1,1-7,7,7,7,0,0,1,7-7m0-4a11,11,0,1,0,11,11,11,11,0,0,0-11-11Z"/><circle class="c" cx="388" cy="42" r="9"/><path class="a" d="M388,35a7,7,0,1,1-7,7,7,7,0,0,1,7-7m0-4a11,11,0,1,0,11,11,11,11,0,0,0-11-11Z"/><circle class="c" cx="429" cy="69" r="9"/><path class="a" d="M429,62a7,7,0,1,1-7,7,7,7,0,0,1,7-7m0-4a11,11,0,1,0,11,11,11,11,0,0,0-11-11Z"/><circle class="c" cx="406" cy="97" r="9"/><path class="a" d="M406,90a7,7,0,1,1-7,7,7,7,0,0,1,7-7m0-4a11,11,0,1,0,11,11,11,11,0,0,0-11-11Z"/><circle class="c" cx="361" cy="158" r="9"/><path class="a" d="M361,151a7,7,0,1,1-7,7,7,7,0,0,1,7-7m0-4a11,11,0,1,0,11,11,11,11,0,0,0-11-11Z"/><polygon class="c" points="143 251.92 143 213.1 176.62 193.69 210.23 213.1 210.23 251.92 176.62 271.33 143 251.92"/><path class="a" d="M176.62,196l31.61,18.25v36.51L176.62,269,145,250.76V214.25L176.62,196m0-4.62-2,1.16L143,210.79l-2,1.15v41.13l2,1.16,31.62,18.25,2,1.16,2-1.16,31.61-18.25,2-1.16V211.94l-2-1.15-31.61-18.25-2-1.16Z"/><rect class="a" x="162" y="217" width="5.74" height="33"/><circle class="a" cx="184.24" cy="229.2" r="12.2"/><circle class="c" cx="204" cy="166" r="9"/><path class="a" d="M204,159a7,7,0,1,1-7,7,7,7,0,0,1,7-7m0-4a11,11,0,1,0,11,11,11,11,0,0,0-11-11Z"/><text class="d" transform="translate(55.21 366.27)">U<tspan class="e" x="16.31" y="0">T</tspan><tspan x="30.8" y="0">C</tspan></text><text class="d" transform="translate(239.21 466.27)">Non-P<tspan class="f" x="67.55" y="0">r</tspan><tspan class="g" x="75.66" y="0">ofit Donations</tspan></text><path class="c" d="M301.56,395.42,300.2,412c-.35,4.28-6.72,3.69-6.37-.51l1.05-12.88-4.32.24a16.38,16.38,0,0,1-2.78,18.4l-4.13-4.13a10.5,10.5,0,0,0-14.84-14.84l-4.13-4.13a16.28,16.28,0,0,1,8.55-4.23l7.91-9-4.47-2.6-5.43,4.83c-3.15,2.82-7.42-1.94-4.25-4.77l7.14-6.38a3.2,3.2,0,0,1,3.74-.38s14.64,8.5,14.66,8.53a3.74,3.74,0,0,1,.64,5.52l-6.14,7,11.15-.62a3.2,3.2,0,0,1,3.38,3.44Zm-6.83-16.19a5.35,5.35,0,1,0-5.35-5.35A5.34,5.34,0,0,0,294.73,379.23Zm-18.85,37.28a10.51,10.51,0,0,1-8.69-16.4L263,395.93A16.22,16.22,0,0,0,259.53,406c0,13.74,15.83,21.17,26.42,12.88l-4.17-4.17a10.5,10.5,0,0,1-5.9,1.81Z"/><path class="c" d="M371.56,327.22c-5.76-4.91-14.33-4-19.62,1.43l-2.07,2.13-2.07-2.13c-5.27-5.46-13.85-6.34-19.61-1.43a15.09,15.09,0,0,0-1,21.85l20.34,21a3.29,3.29,0,0,0,4.76,0l20.34-21a15.09,15.09,0,0,0-1-21.85Z"/><path class="c" d="M416.87,396.8a2.52,2.52,0,0,0-2.52,2.53,77,77,0,0,1-2.91,22.23,2.53,2.53,0,0,0,2.43,3.2,2.51,2.51,0,0,0,2.42-1.84,80.8,80.8,0,0,0,3.1-23.59,2.52,2.52,0,0,0-2.52-2.53Zm-.09-8.59a10.52,10.52,0,0,0-10.84,10.63,68.91,68.91,0,0,1-1.41,15,2.52,2.52,0,1,0,4.94,1A73.36,73.36,0,0,0,411,398.76a5.48,5.48,0,0,1,5.73-5.5,6.08,6.08,0,0,1,6.05,5.83,84.46,84.46,0,0,1-1.11,15.08,2.52,2.52,0,0,0,5,.83,90,90,0,0,0,1.19-16,11.17,11.17,0,0,0-11-10.8Zm-11.63-2.08a2.53,2.53,0,0,0-3.55.37,18.22,18.22,0,0,0-4.07,11.77,61.09,61.09,0,0,1-1,11.78,2.52,2.52,0,1,0,5,.89,65.45,65.45,0,0,0,1-12.75,13,13,0,0,1,2.94-8.51,2.52,2.52,0,0,0-.36-3.55Zm11.5-6.55a18.53,18.53,0,0,0-4.81.53A2.52,2.52,0,0,0,413,385a14.72,14.72,0,0,1,3.58-.39c7.92.12,14.47,6.46,14.59,14.14a93.49,93.49,0,0,1-.58,12,2.52,2.52,0,0,0,5,.57,98.19,98.19,0,0,0,.62-12.6c-.17-10.38-8.94-18.95-19.57-19.11Zm26.49,12.77a2.52,2.52,0,1,0-4.92,1.08,26.62,26.62,0,0,1,.49,6.48,2.52,2.52,0,0,0,2.5,2.54h0a2.52,2.52,0,0,0,2.52-2.5,30.91,30.91,0,0,0-.62-7.6Zm-4.21-9.54A28,28,0,0,0,416.52,371a26.34,26.34,0,0,0-19.16,7.67A25,25,0,0,0,390,396.88l0,2.25a2.53,2.53,0,0,0,2.45,2.6h.08a2.53,2.53,0,0,0,2.52-2.45V396.8a20.08,20.08,0,0,1,5.92-14.61A21.27,21.27,0,0,1,416.45,376a22.9,22.9,0,0,1,18.35,9.71,2.52,2.52,0,1,0,4.13-2.9Z"/><path class="c" d="M69.25,343.1a3.37,3.37,0,0,1-3.36-3.37V337a3.33,3.33,0,0,1,.7-2,3.34,3.34,0,0,1-.7-2v-2.73a3.33,3.33,0,0,1,.7-2,3.34,3.34,0,0,1-.7-2.05v-2.73A3.37,3.37,0,0,1,69.25,320h19.1a3.36,3.36,0,0,1,3.36,3.36v2.73a3.4,3.4,0,0,1-.69,2.05,3.39,3.39,0,0,1,.69,2v2.73a3.33,3.33,0,0,1-.69,2,3.33,3.33,0,0,1,.69,2v2.73a3.36,3.36,0,0,1-3.36,3.37Z"/><path class="a" d="M88.35,322a1.36,1.36,0,0,1,1.36,1.36v2.73a1.36,1.36,0,0,1-1.36,1.37H69.25a1.36,1.36,0,0,1-1.36-1.37v-2.73A1.36,1.36,0,0,1,69.25,322h19.1m-2,3.75a1,1,0,1,0-1-1,1,1,0,0,0,1,1m-2.72,0a1,1,0,1,0-1-1,1,1,0,0,0,1,1m4.77,3.07a1.36,1.36,0,0,1,1.36,1.36v2.73a1.36,1.36,0,0,1-1.36,1.37H69.25a1.36,1.36,0,0,1-1.36-1.37v-2.73a1.36,1.36,0,0,1,1.36-1.36h19.1m-2,3.75a1,1,0,1,0-1-1,1,1,0,0,0,1,1m-2.72,0a1,1,0,1,0-1-1,1,1,0,0,0,1,1m4.77,3.07A1.36,1.36,0,0,1,89.71,337v2.73a1.36,1.36,0,0,1-1.36,1.37H69.25a1.36,1.36,0,0,1-1.36-1.37V337a1.36,1.36,0,0,1,1.36-1.36h19.1m-2,3.75a1,1,0,1,0-1-1,1,1,0,0,0,1,1m-2.72,0a1,1,0,1,0-1-1,1,1,0,0,0,1,1M88.35,318H69.25a5.37,5.37,0,0,0-5.36,5.36v2.73a5.18,5.18,0,0,0,.41,2.05,5.16,5.16,0,0,0-.41,2v2.73a5.18,5.18,0,0,0,.41,2,5.16,5.16,0,0,0-.41,2v2.73a5.38,5.38,0,0,0,5.36,5.37h19.1a5.37,5.37,0,0,0,5.36-5.37V337a5.34,5.34,0,0,0-.4-2,5.35,5.35,0,0,0,.4-2v-2.73a5.34,5.34,0,0,0-.4-2,5.35,5.35,0,0,0,.4-2.05v-2.73A5.37,5.37,0,0,0,88.35,318Z"/></svg>