<svg xmlns="http://www.w3.org/2000/svg" viewBox="0 0 500 500"><defs><style>.a{fill:#071013;}.b{fill:none;stroke:#fff;stroke-miterlimit:10;stroke-width:2px;}.c{fill:#fdfe00;}</style></defs><title>patreon</title><rect class="a" width="500" height="500"/><path class="b" d="M177,233C71,229,78,69,78,69"/><path class="b" d="M177,235c-52-29-55-149-55-149"/><path class="b" d="M158,35s-22.58,127,15.71,198"/><path class="b" d="M406,97s85,110-226,138"/><path class="b" d="M429,72S411.76,251,174.88,237"/><path class="b" d="M330,86S318,208,180,229"/><path class="b" d="M388,42S364.55,206,182.27,235"/><path class="b" d="M296,49s-5,145-116,184"/><path class="b" d="M177,237.13C232,220.25,250,109,250,109"/><path class="b" d="M190,72s-40.45,111.39-7.73,157.2"/><path class="b" d="M298,109s0,199-118,136"/><path class="b" d="M108,139c-8,16-22,119,66,102"/><path class="b" d="M176.62,219.08S199,207,204,166"/><path class="b" d="M175,253c-1.16,43.28-97-1-96,63"/><path class="b" d="M350,316c5-110-176.58,29.38-161.68-70.41"/><path class="b" d="M177,243c9,15,105,41,100,112"/><path class="b" d="M184.24,247.17C186,269,201,365,302,314s118,13,117,45"/><path class="b" d="M361,158c14,19,35,130-181,87"/><circle class="c" cx="78" cy="69" r="9"/><path class="a" d="M78,62a7,7,0,1,1-7,7,7,7,0,0,1,7-7m0-4A11,11,0,1,0,89,69,11,11,0,0,0,78,58Z"/><circle class="c" cx="122" cy="86" r="9"/><path class="a" d="M122,79a7,7,0,1,1-7,7,7,7,0,0,1,7-7m0-4a11,11,0,1,0,11,11,11,11,0,0,0-11-11Z"/><circle class="c" cx="108" cy="139" r="9"/><path class="a" d="M108,132a7,7,0,1,1-7,7,7,7,0,0,1,7-7m0-4a11,11,0,1,0,11,11,11,11,0,0,0-11-11Z"/><circle class="c" cx="158" cy="35" r="9"/><path class="a" d="M158,28a7,7,0,1,1-7,7,7,7,0,0,1,7-7m0-4a11,11,0,1,0,11,11,11,11,0,0,0-11-11Z"/><circle class="c" cx="193" cy="72" r="9"/><path class="a" d="M193,65a7,7,0,1,1-7,7,7,7,0,0,1,7-7m0-4a11,11,0,1,0,11,11,11,11,0,0,0-11-11Z"/><circle class="c" cx="250" cy="111" r="9"/><path class="a" d="M250,104a7,7,0,1,1-7,7,7,7,0,0,1,7-7m0-4a11,11,0,1,0,11,11,11,11,0,0,0-11-11Z"/><circle class="c" cx="296" cy="49" r="9"/><path class="a" d="M296,42a7,7,0,1,1-7,7,7,7,0,0,1,7-7m0-4a11,11,0,1,0,11,11,11,11,0,0,0-11-11Z"/><circle class="c" cx="330" cy="86" r="9"/><path class="a" d="M330,79a7,7,0,1,1-7,7,7,7,0,0,1,7-7m0-4a11,11,0,1,0,11,11,11,11,0,0,0-11-11Z"/><circle class="c" cx="298" cy="109" r="9"/><path class="a" d="M298,102a7,7,0,1,1-7,7,7,7,0,0,1,7-7m0-4a11,11,0,1,0,11,11,11,11,0,0,0-11-11Z"/><circle class="c" cx="388" cy="42" r="9"/><path class="a" d="M388,35a7,7,0,1,1-7,7,7,7,0,0,1,7-7m0-4a11,11,0,1,0,11,11,11,11,0,0,0-11-11Z"/><circle class="c" cx="429" cy="69" r="9"/><path class="a" d="M429,62a7,7,0,1,1-7,7,7,7,0,0,1,7-7m0-4a11,11,0,1,0,11,11,11,11,0,0,0-11-11Z"/><circle class="c" cx="406" cy="97" r="9"/><path class="a" d="M406,90a7,7,0,1,1-7,7,7,7,0,0,1,7-7m0-4a11,11,0,1,0,11,11,11,11,0,0,0-11-11Z"/><circle class="c" cx="361" cy="158" r="9"/><path class="a" d="M361,151a7,7,0,1,1-7,7,7,7,0,0,1,7-7m0-4a11,11,0,1,0,11,11,11,11,0,0,0-11-11Z"/><polygon class="c" points="143 251.92 143 213.1 176.62 193.69 210.23 213.1 210.23 251.92 176.62 271.33 143 251.92"/><path class="a" d="M176.62,196l31.61,18.25v36.51L176.62,269,145,250.76V214.25L176.62,196m0-4.62-2,1.16L143,210.79l-2,1.15v41.13l2,1.16,31.62,18.25,2,1.16,2-1.16,31.61-18.25,2-1.16V211.94l-2-1.15-31.61-18.25-2-1.16Z"/><rect class="a" x="162" y="217" width="5.74" height="33"/><circle class="a" cx="184.24" cy="229.2" r="12.2"/><circle class="c" cx="204" cy="166" r="9"/><path class="a" d="M204,159a7,7,0,1,1-7,7,7,7,0,0,1,7-7m0-4a11,11,0,1,0,11,11,11,11,0,0,0-11-11Z"/><path class="c" d="M69.6,348.62v12.05a6.07,6.07,0,0,1-.79,3.1,5.06,5.06,0,0,1-2.19,2,7,7,0,0,1-3.24.71A6.33,6.33,0,0,1,58.92,365a5.55,5.55,0,0,1-1.74-4.21V348.62h1.48v11.94A4.58,4.58,0,0,0,59.93,364a5.45,5.45,0,0,0,6.9,0,4.61,4.61,0,0,0,1.27-3.44v-12Z"/><path class="c" d="M85.73,349.88h-6v16.39H78.19V349.88h-6v-1.26H85.73Z"/><path class="c" d="M100.74,360.77a6.32,6.32,0,0,1-2,4.27,6.61,6.61,0,0,1-4.5,1.47,6.16,6.16,0,0,1-3.47-1,6.28,6.28,0,0,1-2.33-2.78,9.92,9.92,0,0,1-.84-4.11v-2.3a10,10,0,0,1,.82-4.16,6.32,6.32,0,0,1,2.37-2.81,6.46,6.46,0,0,1,3.56-1,6.32,6.32,0,0,1,4.48,1.53,6.44,6.44,0,0,1,1.91,4.23H99.23q-.56-4.5-4.88-4.5a4.62,4.62,0,0,0-3.82,1.8,7.77,7.77,0,0,0-1.43,5v2.16a7.78,7.78,0,0,0,1.39,4.87,4.45,4.45,0,0,0,3.75,1.82,5,5,0,0,0,3.53-1.12,5.36,5.36,0,0,0,1.46-3.36Z"/><path class="c" d="M254.58,466.27h-1.49L243,451.17v15.1h-1.51V448.62H243l10.15,15.12V448.62h1.48Z"/><path class="c" d="M257.93,459.52a7.72,7.72,0,0,1,.73-3.41,5.5,5.5,0,0,1,5.11-3.19,5.4,5.4,0,0,1,4.24,1.83,7.11,7.11,0,0,1,1.62,4.87v.3a7.73,7.73,0,0,1-.73,3.42,5.51,5.51,0,0,1-2.06,2.35,5.69,5.69,0,0,1-3,.82,5.4,5.4,0,0,1-4.23-1.83,7.06,7.06,0,0,1-1.63-4.87Zm1.45.4a6,6,0,0,0,1.22,3.86,4.11,4.11,0,0,0,6.37,0,6.1,6.1,0,0,0,1.22-4v-.28a6.53,6.53,0,0,0-.56-2.75,4.43,4.43,0,0,0-1.56-1.93,4,4,0,0,0-2.3-.69,3.87,3.87,0,0,0-3.16,1.52,6.14,6.14,0,0,0-1.23,4Z"/><path class="c" d="M274,453.16l.05,2.24a5.26,5.26,0,0,1,1.84-1.85,4.85,4.85,0,0,1,2.44-.63,4,4,0,0,1,3.14,1.18,5.41,5.41,0,0,1,1,3.57v8.6h-1.44v-8.62a4,4,0,0,0-.75-2.61,2.9,2.9,0,0,0-2.34-.86,3.69,3.69,0,0,0-2.39.84,4.93,4.93,0,0,0-1.53,2.27v9h-1.44V453.16Z"/><path class="c" d="M290.77,459.1H285v-1.23h5.8Z"/><path class="c" d="M295.2,459.08v7.19h-1.49V448.62h6a6.31,6.31,0,0,1,4.34,1.41,4.91,4.91,0,0,1,1.6,3.87,4.82,4.82,0,0,1-1.54,3.83,6.51,6.51,0,0,1-4.44,1.35Zm0-1.26h4.52a4.77,4.77,0,0,0,3.31-1,3.68,3.68,0,0,0,1.14-2.87A3.83,3.83,0,0,0,303,451a4.54,4.54,0,0,0-3.22-1.12H295.2Z"/><path class="c" d="M314.71,454.39a6.08,6.08,0,0,0-1-.08,3.52,3.52,0,0,0-2.3.76,4.1,4.1,0,0,0-1.34,2.2v9h-1.44V453.16h1.42l0,2.08a3.86,3.86,0,0,1,3.7-2.32,2.54,2.54,0,0,1,1,.15Z"/><path class="c" d="M316,459.52a7.72,7.72,0,0,1,.73-3.41,5.5,5.5,0,0,1,5.11-3.19,5.39,5.39,0,0,1,4.24,1.83,7.06,7.06,0,0,1,1.63,4.87v.3a7.74,7.74,0,0,1-.74,3.42,5.38,5.38,0,0,1-2.06,2.35,5.68,5.68,0,0,1-3,.82,5.42,5.42,0,0,1-4.24-1.83,7.06,7.06,0,0,1-1.63-4.87Zm1.45.4a6,6,0,0,0,1.22,3.86,4.12,4.12,0,0,0,6.38,0,6.16,6.16,0,0,0,1.21-4v-.28a6.69,6.69,0,0,0-.55-2.75,4.45,4.45,0,0,0-1.57-1.93,4,4,0,0,0-2.3-.69,3.87,3.87,0,0,0-3.16,1.52,6.14,6.14,0,0,0-1.23,4Z"/><path class="c" d="M331.7,466.27V454.34h-2.17v-1.18h2.17v-1.59a4.29,4.29,0,0,1,1-3.09,3.73,3.73,0,0,1,2.85-1.08,5.85,5.85,0,0,1,1.54.2l-.11,1.21a5.44,5.44,0,0,0-1.32-.15,2.38,2.38,0,0,0-1.87.75,3.09,3.09,0,0,0-.66,2.12v1.63h3.13v1.18h-3.13v11.93Z"/><path class="c" d="M338.79,449.37a1,1,0,0,1,.27-.69,1,1,0,0,1,.73-.29,1,1,0,0,1,.73,1.67,1,1,0,0,1-.73.27,1,1,0,0,1-.73-.27A1,1,0,0,1,338.79,449.37Zm1.71,16.9h-1.45V453.16h1.45Z"/><path class="c" d="M346.7,449.8v3.36h2.71v1.18H346.7v8.75a2.78,2.78,0,0,0,.39,1.63,1.51,1.51,0,0,0,1.32.53,9.07,9.07,0,0,0,1.17-.12l.06,1.18a4.66,4.66,0,0,1-1.55.2,2.61,2.61,0,0,1-2.17-.86,4.1,4.1,0,0,1-.68-2.55v-8.76h-2.41v-1.18h2.41V449.8Z"/><path class="c" d="M358.79,466.27V448.62h4.94a7.68,7.68,0,0,1,3.89,1,6.85,6.85,0,0,1,2.68,2.83,9,9,0,0,1,1,4.2v1.62a8.86,8.86,0,0,1-.95,4.19,6.83,6.83,0,0,1-2.7,2.83,7.93,7.93,0,0,1-4,1Zm1.49-16.39V465h3.35a5.76,5.76,0,0,0,4.47-1.85,7.15,7.15,0,0,0,1.69-5V456.6a7,7,0,0,0-1.67-4.87,5.65,5.65,0,0,0-4.37-1.85Z"/><path class="c" d="M373.91,459.52a7.72,7.72,0,0,1,.73-3.41,5.5,5.5,0,0,1,5.11-3.19,5.4,5.4,0,0,1,4.24,1.83,7.11,7.11,0,0,1,1.63,4.87v.3a7.74,7.74,0,0,1-.74,3.42,5.51,5.51,0,0,1-2.06,2.35,5.69,5.69,0,0,1-3.05.82,5.4,5.4,0,0,1-4.23-1.83,7.06,7.06,0,0,1-1.63-4.87Zm1.45.4a6,6,0,0,0,1.22,3.86,4.12,4.12,0,0,0,6.38,0,6.16,6.16,0,0,0,1.21-4v-.28a6.69,6.69,0,0,0-.55-2.75,4.52,4.52,0,0,0-1.57-1.93,4,4,0,0,0-2.3-.69,3.87,3.87,0,0,0-3.16,1.52,6.14,6.14,0,0,0-1.23,4Z"/><path class="c" d="M390,453.16l.05,2.24a5.26,5.26,0,0,1,1.84-1.85,4.85,4.85,0,0,1,2.44-.63,4,4,0,0,1,3.14,1.18,5.41,5.41,0,0,1,1,3.57v8.6h-1.44v-8.62a4,4,0,0,0-.75-2.61,2.9,2.9,0,0,0-2.34-.86,3.71,3.71,0,0,0-2.39.84,4.93,4.93,0,0,0-1.53,2.27v9h-1.44V453.16Z"/><path class="c" d="M410.52,466.27a7,7,0,0,1-.28-1.83A5,5,0,0,1,408.3,466a6,6,0,0,1-2.5.54,4.39,4.39,0,0,1-3.06-1.05,3.43,3.43,0,0,1-1.17-2.67,3.53,3.53,0,0,1,1.59-3,7.67,7.67,0,0,1,4.44-1.11h2.63v-1.49a2.88,2.88,0,0,0-.86-2.21,3.58,3.58,0,0,0-2.53-.81,3.94,3.94,0,0,0-2.51.78,2.29,2.29,0,0,0-1,1.86h-1.45a3.39,3.39,0,0,1,1.45-2.71,5.64,5.64,0,0,1,3.58-1.14,5.11,5.11,0,0,1,3.46,1.09,3.93,3.93,0,0,1,1.3,3.06v6.21a7.84,7.84,0,0,0,.4,2.85v.14Zm-4.56-1a4.91,4.91,0,0,0,2.61-.7,4.19,4.19,0,0,0,1.66-1.88v-2.89h-2.59a6.49,6.49,0,0,0-3.4.8,2.38,2.38,0,0,0-1.22,2.11,2.32,2.32,0,0,0,.82,1.83A3,3,0,0,0,406,465.23Z"/><path class="c" d="M417.79,449.8v3.36h2.72v1.18h-2.72v8.75a2.77,2.77,0,0,0,.4,1.63,1.51,1.51,0,0,0,1.31.53,9,9,0,0,0,1.18-.12l.06,1.18a4.66,4.66,0,0,1-1.55.2,2.6,2.6,0,0,1-2.17-.86,4.1,4.1,0,0,1-.68-2.55v-8.76h-2.41v-1.18h2.41V449.8Z"/><path class="c" d="M423.43,449.37a1,1,0,0,1,.27-.69,1,1,0,0,1,.72-.29,1,1,0,0,1,.74.29,1,1,0,0,1,0,1.38,1,1,0,0,1-.74.27.93.93,0,0,1-1-1Zm1.71,16.9h-1.45V453.16h1.45Z"/><path class="c" d="M428.28,459.52a7.72,7.72,0,0,1,.73-3.41,5.5,5.5,0,0,1,5.11-3.19,5.39,5.39,0,0,1,4.24,1.83,7.06,7.06,0,0,1,1.63,4.87v.3a7.74,7.74,0,0,1-.74,3.42,5.38,5.38,0,0,1-2.06,2.35,5.65,5.65,0,0,1-3,.82,5.42,5.42,0,0,1-4.24-1.83,7.06,7.06,0,0,1-1.63-4.87Zm1.45.4a6,6,0,0,0,1.22,3.86,4.12,4.12,0,0,0,6.38,0,6.16,6.16,0,0,0,1.21-4v-.28a6.69,6.69,0,0,0-.55-2.75,4.45,4.45,0,0,0-1.57-1.93,4,4,0,0,0-2.3-.69,3.87,3.87,0,0,0-3.16,1.52,6.14,6.14,0,0,0-1.23,4Z"/><path class="c" d="M444.36,453.16l.05,2.24a5.26,5.26,0,0,1,1.84-1.85,4.85,4.85,0,0,1,2.44-.63,3.94,3.94,0,0,1,3.14,1.18,5.35,5.35,0,0,1,1,3.57v8.6h-1.44v-8.62a4,4,0,0,0-.75-2.61,2.88,2.88,0,0,0-2.34-.86A3.66,3.66,0,0,0,446,455a4.94,4.94,0,0,0-1.54,2.27v9H443V453.16Z"/><path class="c" d="M464.47,462.94a2,2,0,0,0-.87-1.73,6.57,6.57,0,0,0-2.61-1,12.11,12.11,0,0,1-2.71-.85,3.7,3.7,0,0,1-1.43-1.17,2.92,2.92,0,0,1-.46-1.67,3.12,3.12,0,0,1,1.29-2.56,5.23,5.23,0,0,1,3.32-1,5.43,5.43,0,0,1,3.53,1.08,3.49,3.49,0,0,1,1.32,2.83H464.4a2.33,2.33,0,0,0-1-1.91,3.83,3.83,0,0,0-2.44-.77,3.74,3.74,0,0,0-2.29.64,2,2,0,0,0-.87,1.65,1.78,1.78,0,0,0,.72,1.52,7.65,7.65,0,0,0,2.63,1,12.16,12.16,0,0,1,2.86,1,3.66,3.66,0,0,1,1.41,1.22,3.35,3.35,0,0,1-.87,4.39,5.76,5.76,0,0,1-3.5,1,5.89,5.89,0,0,1-3.71-1.1A3.43,3.43,0,0,1,456,462.6h1.46a2.49,2.49,0,0,0,1.07,2,4.41,4.41,0,0,0,2.61.71,4.08,4.08,0,0,0,2.45-.67A2,2,0,0,0,464.47,462.94Z"/><path class="c" d="M301.56,395.42,300.2,412c-.35,4.28-6.72,3.69-6.37-.51l1.05-12.88-4.32.24a16.38,16.38,0,0,1-2.78,18.4l-4.13-4.13a10.5,10.5,0,0,0-14.84-14.84l-4.13-4.13a16.28,16.28,0,0,1,8.55-4.23l7.91-9-4.47-2.6-5.43,4.83c-3.15,2.82-7.42-1.94-4.25-4.77l7.14-6.38a3.2,3.2,0,0,1,3.74-.38s14.64,8.5,14.66,8.53a3.74,3.74,0,0,1,.64,5.52l-6.14,7,11.15-.62a3.2,3.2,0,0,1,3.38,3.44Zm-6.83-16.19a5.35,5.35,0,1,0-5.35-5.35A5.34,5.34,0,0,0,294.73,379.23Zm-18.85,37.28a10.51,10.51,0,0,1-8.69-16.4L263,395.93A16.22,16.22,0,0,0,259.53,406c0,13.74,15.83,21.17,26.42,12.88l-4.17-4.17a10.5,10.5,0,0,1-5.9,1.81Z"/><path class="c" d="M371.56,327.22c-5.76-4.91-14.33-4-19.62,1.43l-2.07,2.13-2.07-2.13c-5.27-5.46-13.85-6.34-19.61-1.43a15.09,15.09,0,0,0-1,21.85l20.34,21a3.29,3.29,0,0,0,4.76,0l20.34-21a15.09,15.09,0,0,0-1-21.85Z"/><path class="c" d="M416.87,396.8a2.52,2.52,0,0,0-2.52,2.53,77,77,0,0,1-2.91,22.23,2.53,2.53,0,0,0,2.43,3.2,2.51,2.51,0,0,0,2.42-1.84,80.8,80.8,0,0,0,3.1-23.59,2.52,2.52,0,0,0-2.52-2.53Zm-.09-8.59a10.52,10.52,0,0,0-10.84,10.63,68.91,68.91,0,0,1-1.41,15,2.52,2.52,0,1,0,4.94,1A73.36,73.36,0,0,0,411,398.76a5.48,5.48,0,0,1,5.73-5.5,6.08,6.08,0,0,1,6.05,5.83,84.46,84.46,0,0,1-1.11,15.08,2.52,2.52,0,0,0,5,.83,90,90,0,0,0,1.19-16,11.17,11.17,0,0,0-11-10.8Zm-11.63-2.08a2.53,2.53,0,0,0-3.55.37,18.22,18.22,0,0,0-4.07,11.77,61.09,61.09,0,0,1-1,11.78,2.52,2.52,0,1,0,5,.89,65.45,65.45,0,0,0,1-12.75,13,13,0,0,1,2.94-8.51,2.52,2.52,0,0,0-.36-3.55Zm11.5-6.55a18.53,18.53,0,0,0-4.81.53A2.52,2.52,0,0,0,413,385a14.72,14.72,0,0,1,3.58-.39c7.92.12,14.47,6.46,14.59,14.14a93.49,93.49,0,0,1-.58,12,2.52,2.52,0,0,0,5,.57,98.19,98.19,0,0,0,.62-12.6c-.17-10.38-8.94-18.95-19.57-19.11Zm26.49,12.77a2.52,2.52,0,1,0-4.92,1.08,26.62,26.62,0,0,1,.49,6.48,2.52,2.52,0,0,0,2.5,2.54h0a2.52,2.52,0,0,0,2.52-2.5,30.91,30.91,0,0,0-.62-7.6Zm-4.21-9.54A28,28,0,0,0,416.52,371a26.34,26.34,0,0,0-19.16,7.67A25,25,0,0,0,390,396.88l0,2.25a2.53,2.53,0,0,0,2.45,2.6h.08a2.53,2.53,0,0,0,2.52-2.45V396.8a20.08,20.08,0,0,1,5.92-14.61A21.27,21.27,0,0,1,416.45,376a22.9,22.9,0,0,1,18.35,9.71,2.52,2.52,0,1,0,4.13-2.9Z"/><path class="c" d="M69.25,343.1a3.37,3.37,0,0,1-3.36-3.37V337a3.33,3.33,0,0,1,.7-2,3.34,3.34,0,0,1-.7-2v-2.73a3.33,3.33,0,0,1,.7-2,3.34,3.34,0,0,1-.7-2.05v-2.73A3.37,3.37,0,0,1,69.25,320h19.1a3.36,3.36,0,0,1,3.36,3.36v2.73a3.4,3.4,0,0,1-.69,2.05,3.39,3.39,0,0,1,.69,2v2.73a3.33,3.33,0,0,1-.69,2,3.33,3.33,0,0,1,.69,2v2.73a3.36,3.36,0,0,1-3.36,3.37Z"/><path class="a" d="M88.35,322a1.36,1.36,0,0,1,1.36,1.36v2.73a1.36,1.36,0,0,1-1.36,1.37H69.25a1.36,1.36,0,0,1-1.36-1.37v-2.73A1.36,1.36,0,0,1,69.25,322h19.1m-2,3.75a1,1,0,1,0-1-1,1,1,0,0,0,1,1m-2.72,0a1,1,0,1,0-1-1,1,1,0,0,0,1,1m4.77,3.07a1.36,1.36,0,0,1,1.36,1.36v2.73a1.36,1.36,0,0,1-1.36,1.37H69.25a1.36,1.36,0,0,1-1.36-1.37v-2.73a1.36,1.36,0,0,1,1.36-1.36h19.1m-2,3.75a1,1,0,1,0-1-1,1,1,0,0,0,1,1m-2.72,0a1,1,0,1,0-1-1,1,1,0,0,0,1,1m4.77,3.07A1.36,1.36,0,0,1,89.71,337v2.73a1.36,1.36,0,0,1-1.36,1.37H69.25a1.36,1.36,0,0,1-1.36-1.37V337a1.36,1.36,0,0,1,1.36-1.36h19.1m-2,3.75a1,1,0,1,0-1-1,1,1,0,0,0,1,1m-2.72,0a1,1,0,1,0-1-1,1,1,0,0,0,1,1M88.35,318H69.25a5.37,5.37,0,0,0-5.36,5.36v2.73a5.18,5.18,0,0,0,.41,2.05,5.16,5.16,0,0,0-.41,2v2.73a5.18,5.18,0,0,0,.41,2,5.16,5.16,0,0,0-.41,2v2.73a5.38,5.38,0,0,0,5.36,5.37h19.1a5.37,5.37,0,0,0,5.36-5.37V337a5.34,5.34,0,0,0-.4-2,5.35,5.35,0,0,0,.4-2v-2.73a5.34,5.34,0,0,0-.4-2,5.35,5.35,0,0,0,.4-2.05v-2.73A5.37,5.37,0,0,0,88.35,318Z"/></svg>