<svg xmlns="http://www.w3.org/2000/svg" viewBox="0 0 146.98 57.78"><defs><style>.a{fill:#fff;}</style></defs><title>utc</title><path class="a" d="M8.52,13.49V47.38a19.72,19.72,0,0,0,2.26,9.93q3.35,6,11.28,6,9.53,0,13-6.45a20.56,20.56,0,0,0,1.84-9.45V13.49h7.5v30.8q0,10.11-2.73,15.56-5,9.93-18.95,9.93T3.75,59.85Q1,54.41,1,44.29V13.49Z" transform="translate(-1.02 -12)"/><path class="a" d="M95.56,13.49V20H77.08V68.32h-7.5V20H51.11V13.49Z" transform="translate(-1.02 -12)"/><path class="a" d="M141.17,17.49A19.45,19.45,0,0,1,147.48,30h-7.24a15.16,15.16,0,0,0-4.82-8.39q-3.61-3.11-10.14-3.1a16.13,16.13,0,0,0-12.85,5.7q-4.89,5.68-4.89,17.46,0,9.63,4.42,15.63t13.18,6q8.07,0,12.28-6.31a24.39,24.39,0,0,0,3.34-8.73H148a24.79,24.79,0,0,1-6.35,14.51q-6.45,7.07-17.41,7.06A22.82,22.82,0,0,1,108.37,64q-8.45-7.65-8.44-23.64,0-12.14,6.34-19.91Q113.14,12,125.2,12,135.49,12,141.17,17.49Z" transform="translate(-1.02 -12)"/></svg>